<svg fill="none" height="76" viewBox="0 0 76 76" width="76" xmlns="http://www.w3.org/2000/svg"><circle cx="38" cy="38" fill="#c49d7f" r="38"/><g fill="#fff" stroke="#fff"><path d="m35.25 40.8113-3.5613-3.5613-1.9387 1.9387 5.5 5.5 11-11-1.9387-1.9387z"/><path d="m38 59.25-8.492-4.5279c-2.4209-1.2879-4.4454-3.2108-5.8562-5.5622-1.4108-2.3515-2.1547-5.0427-2.1518-7.7849v-17.875c.0007-.7291.2907-1.4282.8063-1.9437.5155-.5156 1.2146-.8056 1.9437-.8063h27.5c.7291.0007 1.4282.2907 1.9437.8063.5156.5155.8056 1.2146.8063 1.9437v17.875c.0029 2.7422-.7409 5.4334-2.1518 7.7849-1.4108 2.3514-3.4353 4.2743-5.8562 5.5622zm-13.75-35.75v17.875c-.0023 2.2437.6065 4.4457 1.7611 6.3696 1.1545 1.9239 2.8112 3.4971 4.7922 4.5506l7.1967 3.8377 7.1968-3.8363c1.9812-1.0536 3.638-2.627 4.7925-4.5512 1.1546-1.9242 1.7632-4.1264 1.7607-6.3704v-17.875z"/></g></svg>