<svg fill="none" height="76" viewBox="0 0 76 76" width="76" xmlns="http://www.w3.org/2000/svg"><circle cx="38" cy="38" fill="#c49d7f" r="38"/><g fill="#fff"><path d="m35.625 26.25h-1.875c-2.9667 0-5.8668.8797-8.3335 2.528-2.4668 1.6482-4.3894 3.9909-5.5247 6.7317-1.1353 2.7409-1.4324 5.7569-.8536 8.6667.5788 2.9097 2.0074 5.5824 4.1052 7.6802s4.7705 3.5264 7.6803 4.1052c2.9097.5788 5.9257.2817 8.6666-.8536s5.0835-3.0579 6.7318-5.5246c1.6482-2.4668 2.5279-5.3669 2.5279-8.3336v-1.875h-13.125zm9.225 16.875c-.3456 2.0349-1.2444 3.9356-2.5981 5.4938-1.3536 1.5583-3.1098 2.7141-5.0764 3.341-1.9666.6268-4.0677.7006-6.0734.2131-2.0057-.4874-3.8387-1.5173-5.2982-2.9768s-2.4894-3.2925-2.9768-5.2982c-.4875-2.0057-.4137-4.1068.2131-6.0734.6269-1.9666 1.7827-3.7228 3.341-5.0764 1.5582-1.3536 3.4589-2.2525 5.4938-2.5981v12.975z"/><path d="m41.25 18.75h-1.875v16.875h16.875v-1.875c0-3.9782-1.5804-7.7936-4.3934-10.6066s-6.6284-4.3934-10.6066-4.3934zm1.875 13.125v-9.225c2.3056.3884 4.433 1.4855 6.0862 3.1388 1.6533 1.6532 2.7504 3.7806 3.1388 6.0862z"/></g></svg>