<svg fill="none" height="76" viewBox="0 0 76 76" width="76" xmlns="http://www.w3.org/2000/svg"><circle cx="38" cy="38" fill="#c49d7f" r="38"/><path d="m52.5003 39.375c-.0127-1.1093-.2222-2.2076-.6187-3.2437 1.0313-1.9919 1.3143-4.2876.7976-6.4703s-1.7989-4.1078-3.6138-5.4259-4.0423-1.9418-6.2778-1.7578c-2.2355.1839-4.3309 1.1632-5.906 2.7602l-1.3125 1.3313-1.3313-1.3313c-1.7603-1.7579-4.1469-2.7444-6.6347-2.7427-2.4878.0018-4.873.9917-6.6309 2.7521s-2.7445 4.147-2.7427 6.6348c.0018 2.4877.9917 4.8729 2.7521 6.6308l14.6437 14.5688 4.7813-4.7813c1.3097.4312 2.7009.5557 4.0663.3639 1.3654-.1919 2.6685-.6948 3.8087-1.4701l6.6375 6.6375 2.6437-2.6438-6.6375-6.6375c1.0221-1.5328 1.5699-3.3327 1.575-5.175zm-16.875 8.4188-11.925-11.9438c-1.0567-1.0542-1.6513-2.4851-1.6531-3.9777-.0018-1.4927.5895-2.9249 1.6438-3.9817 1.0542-1.0567 2.485-1.6513 3.9777-1.6531 1.4927-.0017 2.9249.5895 3.9816 1.6438l3.975 3.9937 3.975-3.9937c.8106-.8162 1.852-1.3642 2.9837-1.5702 1.1316-.206 2.2993-.06 3.3455.4181s1.9206 1.2655 2.5055 2.256c.5848.9906.8519 2.1366.7653 3.2836-1.6906-1.4549-3.8446-2.2593-6.075-2.2688-1.8983.0141-3.7476.6041-5.3033 1.6921-1.5557 1.0879-2.7445 2.6225-3.409 4.4008-.6646 1.7782-.7736 3.7163-.3127 5.5579.4608 1.8416 1.4699 3.4999 2.8938 4.7555zm7.5-2.7938c-1.1125 0-2.2-.3299-3.1251-.948-.925-.618-1.646-1.4965-2.0717-2.5244-.4257-1.0278-.5371-2.1588-.3201-3.25.2171-1.0911.7528-2.0934 1.5395-2.8801.7866-.7866 1.7889-1.3224 2.88-1.5394 1.0912-.217 2.2222-.1056 3.25.3201 1.0279.4257 1.9064 1.1467 2.5244 2.0717.6181.9251.948 2.0126.948 3.1251 0 1.4919-.5926 2.9226-1.6475 3.9775s-2.4856 1.6475-3.9775 1.6475z" fill="#fff"/></svg>