<svg fill="none" height="76" viewBox="0 0 76 76" width="76" xmlns="http://www.w3.org/2000/svg"><circle cx="38" cy="38" fill="#c49d7f" r="38"/><path d="m56.8127 18.1875-1.6313-.1125c-.8062-.0562-18.4875-1.2-26.5125 6.8438-7.0312 7.05-5.2125 19.5375-4.4625 23.2312l-6.7875 6.7688 2.6438 2.6437 6.7687-6.7687c2.5757.5056 5.194.7631 7.8188.7687 5.0625 0 11.25-1.05 15.4125-5.25 8.0625-8.0062 6.9187-25.6875 6.8625-26.4937zm-9.375 25.5c-4.6125 4.6125-12.6938 4.4063-17.2875 3.75l4.3687-4.3125h8.6063v-3.75h-4.8563l3.75-3.75h6.7313v-3.75h-2.9813l4.2938-4.2937-2.6438-2.6625-4.2937 4.3125v-2.9813h-3.75v6.7313l-3.75 3.75v-4.8563h-3.75v8.6063l-4.3875 4.3875c-.5625-4.5938-.7688-12.675 3.75-17.2875 5.6062-5.5125 17.5125-5.8875 22.0125-5.8313.0562 4.5-.3188 16.4063-5.8313 21.9188z" fill="#fff"/></svg>