<svg fill="none" height="76" viewBox="0 0 76 76" width="76" xmlns="http://www.w3.org/2000/svg"><circle cx="38" cy="38" fill="#c49d7f" r="38"/><path d="m39.0818 17.6415c-.4497-.3545-1.0057-.5473-1.5784-.5473s-1.1287.1928-1.5785.5473l-8.4354 6.6555c-2.0527 1.6192-1.8028 4.4446-.1479 5.9007l-3.7332 3.0753c-2.4556 2.0272-1.4611 5.7936 1.3005 6.6172l-4.0443 3.7893c-2.5143 2.3537-.8466 6.5714 2.5985 6.5714h8.9377v4.4625c0 1.7595 1.428 3.1875 3.1875 3.1875h3.825c1.7595 0 3.1875-1.428 3.1875-3.1875v-4.4625h8.9352c3.4451 0 5.1128-4.2203 2.5959-6.5739l-4.0468-3.7842c2.7693-.8186 3.7689-4.59 1.3081-6.6173l-3.7281-3.0753c1.655-1.456 1.9049-4.284-.1453-5.9032zm.969 32.6094v4.4625c0 .1691-.0671.3312-.1867.4508-.1195.1195-.2817.1867-.4508.1867h-3.825c-.169 0-.3312-.0672-.4507-.1867-.1196-.1196-.1868-.2817-.1868-.4508v-4.4625zm-2.5474-30.6077 8.4354 6.6555c.2056.1614.3566.3821.4326.6321.0761.2501.0734.5174-.0076.7659-.0809.2485-.2363.4661-.4451.6234-.2087.1572-.4608.2465-.722.2558-.2588.0081-.5091.0949-.7174.2488s-.3648.3675-.4487.6126c-.0839.245-.0912.5098-.0209.759.0703.2493.2148.4712.4144.6363l5.3473 4.4115c.2019.1673.3472.3926.4164.6455.0691.2528.0587.5208-.03.7674-.0886.2467-.2511.4601-.4653.6111-.2143.151-.4698.2323-.732.2328h-1.9329c-.2558-.0002-.5057.0767-.7173.2204-.2116.1438-.375.3479-.4691.5858-.094.2379-.1143.4986-.0583.7482.0561.2496.1859.4765.3726.6513l6.2322 5.8319c.1831.1711.3105.3933.3657.6378.0552.2444.0356.4998-.0562.733-.0919.2332-.2517.4333-.4588.5745-.207.1412-.4518.2168-.7024.2171h-28.0729c-.2508.0002-.4959-.0751-.7034-.216-.2074-.141-.3677-.3411-.4598-.5744-.0922-.2333-.112-.4889-.0569-.7336s.1826-.4671.3658-.6384l6.222-5.8319c.1865-.1745.3162-.401.3724-.6501s.0363-.5094-.0571-.747c-.0934-.2377-.2561-.4419-.4669-.586-.2108-.1442-.46-.2217-.7154-.2226h-1.9227c-.2627.0001-.519-.081-.7339-.2321s-.3778-.3649-.4666-.6122c-.0887-.2473-.0989-.5159-.0292-.7692.0698-.2533.216-.4788.4188-.6458l5.3499-4.409c.1995-.1649.344-.3866.4143-.6357.0704-.249.0634-.5136-.0202-.7585s-.2397-.4586-.4477-.6127c-.2079-.154-.4578-.2412-.7165-.2498-.2611-.0093-.5132-.0986-.7219-.2558-.2088-.1573-.3642-.3749-.4451-.6234-.081-.2485-.0837-.5158-.0077-.7659.0761-.25.2271-.4707.4327-.6321z" fill="#fff" stroke="#fff"/></svg>