<svg fill="none" height="76" viewBox="0 0 76 76" width="76" xmlns="http://www.w3.org/2000/svg"><circle cx="38" cy="38" fill="#c49d7f" r="38"/><path d="m20.0005 31.5272v-.027c-.0001-2.6668.7897-5.2739 2.2698-7.4924 1.48-2.2184 3.5839-3.9488 6.0463-4.9728 2.4624-1.0241 5.1729-1.2959 7.7895-.7811 2.6167.5147 5.0223 1.7929 6.9134 3.6733 1.4878-.7344 3.1498-1.0431 4.8021-.8922 1.6524.151 3.2308.7558 4.561 1.7476s2.3603 2.332 2.9765 3.8726c.6162 1.5405.7946 3.2214.5154 4.857.4105.0381.8087.1604 1.1699.3593.3611.1988.6774.47.929.7965.2517.3266.4333.7015.5337 1.1014.1003.3999.1171.8161.0494 1.2228-1.356 8.157-4.71 13.32-10.056 15.492v2.016c0 1.1935-.4741 2.3381-1.3181 3.182-.8439.8439-1.9885 1.318-3.1819 1.318h-12c-1.1935 0-2.3381-.4741-3.182-1.318s-1.318-1.9885-1.318-3.182v-2.016c-5.346-2.172-8.7-7.335-10.056-15.492-.0655-.3959-.0508-.8008.043-1.191.0938-.3901.265-.7574.5033-1.0802s.539-.5945.8842-.799c.3452-.2046.7279-.3378 1.1255-.3918zm3-.027h3c0-1.9891.7901-3.8968 2.1967-5.3033 1.4065-1.4065 3.3141-2.1967 5.3033-2.1967 1.9891 0 3.8967.7902 5.3033 2.1967 1.4065 1.4065 2.1967 3.3142 2.1967 5.3033h3c0-2.7848-1.1063-5.4555-3.0754-7.4246-1.9691-1.9692-4.6399-3.0754-7.4246-3.0754-2.7848 0-5.4555 1.1062-7.4247 3.0754-1.9691 1.9691-3.0753 4.6398-3.0753 7.4246zm6 0h9c0-1.1935-.4741-2.3381-1.3181-3.182-.8439-.8439-1.9885-1.318-3.1819-1.318-1.1935 0-2.3381.4741-3.182 1.318s-1.318 1.9885-1.318 3.182zm20.598 0h3.213c.2265-.8866.2476-1.8132.0617-2.7092-.1859-.8959-.5738-1.7377-1.1342-2.461-.5605-.7233-1.2786-1.3092-2.0998-1.713-.8212-.4037-1.7237-.6147-2.6387-.6168-.72 0-1.404.126-2.04.357.531.852.969 1.77 1.305 2.733.5714-.1417 1.1718-.1125 1.7268.0839.5549.1965 1.04.5516 1.3949 1.0212.355.4697.5642 1.0332.6018 1.6208.0375.5875-.0983 1.1731-.3905 1.6841zm-4.098 19.5h-15v1.5c0 .3978.158.7794.4393 1.0607s.6628.4393 1.0607.4393h12c.3978 0 .7793-.158 1.0606-.4393s.4394-.6629.4394-1.0607zm-16.056-3h17.112c4.758-1.53 7.77-5.856 9.042-13.5h-35.196c1.272 7.644 4.284 11.97 9.042 13.5z" fill="#fff"/></svg>