<svg fill="none" height="76" viewBox="0 0 76 76" width="76" xmlns="http://www.w3.org/2000/svg" xmlns:xlink="http://www.w3.org/1999/xlink"><clipPath id="a"><path d="m11 14h54.4818v48h-54.4818z"/></clipPath><circle cx="38" cy="38" fill="#c49d7f" r="38"/><g clip-path="url(#a)"><path d="m21.6286 34.518c.6548-8.6081 7.8466-15.3889 16.6221-15.3889s15.9673 6.7808 16.6221 15.3889h3.896c.708 0 1.2822.5739 1.2822 1.2822 0 .7084-.5742 1.2823-1.2822 1.2823h-41.0363c-.7081 0-1.2823-.5739-1.2823-1.2823 0-.7083.5742-1.2822 1.2823-1.2822zm2.5736 0h28.0977c-.6478-7.1898-6.6904-12.8242-14.0488-12.8242-7.3585 0-13.4011 5.6341-14.0489 12.8242zm14.6897 9.9379c0-.8833-.719-1.6028-1.6029-1.6028h-6.7326c-.4663 0-1.2847.239-1.6804.4908l-5.9666 3.7969c-.5976.3802-1.3901.2041-1.7703-.3936-.3802-.5973-.2041-1.3899.3932-1.7703l5.9666-3.7969c.8065-.513 2.1028-.8917 3.0575-.8917h6.7327c2.3008 0 4.1676 1.8683 4.1676 4.1676 0 .5596-.1104 1.0936-.3109 1.5812.5061-.0593 1.1561-.2315 1.5256-.4164l6.5365-3.2683c1.7366-.8682 3.795-.4048 5.0112 1.0025.2029.2351.5916.8971.5992.9142.9689 2.0447.1317 4.4918-1.8988 5.507l-7.817 3.9084c-.8151.4075-2.0982.7099-3.0094.7099h-14.7379c-.4115 0-1.136.2609-1.4468.52l-2.8664 2.3887c-.5441.4535-1.3525.3799-1.806-.1642-.4534-.5441-.3798-1.3528.1643-1.8062l2.8661-2.3888c.7728-.6438 2.0784-1.1143 3.0888-1.1143h14.7379c.5134 0 1.4039-.2098 1.8626-.4391l7.8162-3.9085c.7853-.3926 1.1055-1.3409.7199-2.132-.3996-.7792-1.3558-1.0943-2.1375-.7035l-6.5364 3.2683c-.813.4064-2.0919.709-3.0024.709h-6.4121c-.7083 0-1.2826-.5742-1.2826-1.2826 0-.708.5742-1.2823 1.2826-1.2823h2.8854c.8832 0 1.6028-.7189 1.6028-1.6031zm-.6412-26.6099c-1.0624 0-1.9236-.861-1.9236-1.9233s.8612-1.9237 1.9236-1.9237 1.9237.8613 1.9237 1.9237-.8613 1.9233-1.9237 1.9233z" fill="#fff" stroke="#fff" stroke-width=".5"/></g></svg>