<svg fill="none" height="76" viewBox="0 0 76 76" width="76" xmlns="http://www.w3.org/2000/svg"><circle cx="38" cy="38" fill="#c49d7f" r="38"/><g stroke="#fff" stroke-linecap="round" stroke-linejoin="round" stroke-width="4.08333"><path d="m37.5 46.6665c3.3827 0 6.125-2.7423 6.125-6.125s-2.7423-6.125-6.125-6.125-6.125 2.7423-6.125 6.125 2.7423 6.125 6.125 6.125z"/><path d="m41.9249 34.4375c1.474-3.1401 2.3601-6.2128 2.6602-9.2161.4492-3.3279-1.5557-6.0964-7.0845-6.0964-5.5289 0-7.5338 2.7705-7.0846 6.0964.3001 3.0033 1.1862 6.076 2.6603 9.2161m6.811 12.7625c1.9804 2.8481 4.1997 5.1511 6.6497 6.913 2.6541 2.054 6.0576 1.7007 8.822-3.087s1.3679-7.9094-1.7354-9.1834c-2.7522-1.2413-5.8555-2.011-9.3141-2.303m-13.6199 0c-3.4566.292-6.5599 1.0617-9.31 2.303-3.1075 1.272-4.504 4.3957-1.7395 9.1834 2.7644 4.7877 6.1658 5.1389 8.822 3.087 2.45-1.7619 4.6693-4.0649 6.6518-6.913"/></g></svg>