<svg fill="none" height="22" viewBox="0 0 27 22" width="27" xmlns="http://www.w3.org/2000/svg"><path d="m5.19231 5.2381c0-.41273.08058-.82141.23714-1.20272s.38604-.72778.67533-1.01962.63273-.52334 1.01071-.68129c.37797-.15794.78308-.23923 1.1922-.23923s.81423.08129 1.19221.23923c.37797.15795.7214.38945 1.0107.68129s.5188.63831.6753 1.01962c.1566.38131.2372.78999.2372 1.20272 0 .83353-.3282 1.63293-.9125 2.22233-.58425.5894-1.37666.92052-2.20291.92052s-1.61866-.33112-2.20291-.92052-.91247-1.3888-.91247-2.22233zm3.11538-5.2381c-1.37708 0-2.69777.551869-3.67151 1.5342-.97375.98234-1.5208 2.31467-1.5208 3.7039s.54705 2.72155 1.5208 3.70389c.97374.98233 2.29443 1.53421 3.67151 1.53421 1.37709 0 2.69781-.55188 3.67151-1.53421.9738-.98234 1.5208-2.31466 1.5208-3.70389s-.547-2.72156-1.5208-3.7039c-.9737-.982331-2.29442-1.5342-3.67151-1.5342zm10.38461 6.28571c0-.55569.2188-1.08862.6083-1.48155.3895-.39294.9178-.61368 1.4686-.61368.5509 0 1.0791.22074 1.4686.61368.3895.39293.6084.92586.6084 1.48155 0 .5557-.2189 1.08863-.6084 1.48156s-.9177.61368-1.4686.61368c-.5508 0-1.0791-.22075-1.4686-.61368s-.6083-.92586-.6083-1.48156zm2.0769-4.19047c-1.1016 0-2.1582.44149-2.9372 1.22736s-1.2166 1.85173-1.2166 2.96311c0 1.11139.4376 2.17725 1.2166 2.96312s1.8356 1.22737 2.9372 1.22737c1.1017 0 2.1582-.4415 2.9372-1.22737s1.2167-1.85173 1.2167-2.96312c0-1.11138-.4377-2.17724-1.2167-2.96311s-1.8355-1.22736-2.9372-1.22736zm-20.7692 13.61906c0-.8336.328227-1.6329.912475-2.2223.584245-.5894 1.376655-.9206 2.202905-.9206h10.38462c.8263 0 1.6187.3312 2.2029.9206.5843.5894.9125 1.3887.9125 2.2223v.2347c-.0022.0959-.0091.1917-.0208.287-.1183 1.0158-.4931 1.9839-1.0883 2.8118-1.1361 1.5819-3.2961 2.9522-7.19861 2.9522-3.90046 0-6.06046-1.3703-7.20069-2.9522-.594495-.8281-.96849-1.7962-1.0862308-2.8118-.0103397-.0954-.01726724-.1911-.0207692-.287zm2.07692.1886v.0146l.00831.1027c.08043.6486.32189 1.2662.702 1.7956.67708.9387 2.15169 2.089 5.52046 2.089 3.36881 0 4.84341-1.1503 5.52051-2.089.3801-.5294.6215-1.147.702-1.7956.0037-.0348.0064-.0698.0083-.1048v-.2011c0-.2779-.1094-.5443-.3042-.7408-.1947-.1965-.4589-.3068-.7343-.3068h-10.38462c-.27541 0-.53955.1103-.7343.3068s-.30416.4629-.30416.7408zm18.69228 4.0019c-1.2212 0-2.2223-.1886-3.0323-.4987.333-.6153.585-1.2717.7498-1.9528.5566.2117 1.296.3562 2.2825.3562 2.3241 0 3.2774-.8004 3.697-1.3954.2452-.3471.4008-.7503.4527-1.1733l.0042-.0587c-.0022-.1375-.0579-.2686-.155-.365s-.228-.1505-.3643-.1504h-5.8153c-.1534-.7598-.4726-1.4756-.9347-2.0953h6.75c1.4331 0 2.5962 1.1734 2.5962 2.6191v.0356c-.0025.0763-.008.1525-.0166.2284-.088.7853-.3725 1.5351-.8266 2.179-.8765 1.2383-2.5193 2.2713-5.3876 2.2713z" fill="#c49d7f"/></svg>