<svg fill="none" height="13" viewBox="0 0 14 13" width="14" xmlns="http://www.w3.org/2000/svg"><path d="m4.6084.836673-.00068.000001c-.85023.000944-1.67156.321056-2.28232.899706-.61187.57971-.96268 1.37297-.96372 2.20787v.00076 5.10951.00076c.00104.83488.35187 1.62812.96376 2.20782.61078.5786 1.43213.8986 2.28234.8995h.00062 5.393.0006c.8502-.0009 1.6715-.3209 2.2823-.8996.6118-.5797.9626-1.37292.9635-2.20779v-.00069-5.10951-.00069c-.0009-.83489-.3517-1.62817-.9635-2.2079-.6107-.57867-1.432-.898802-2.2822-.899746h-.0007zm2.73291 8.318097-.03692-.00001c-.56813-.00017-1.12096-.1601-1.58835-.45617-.46709-.29589-.82589-.71295-1.03628-1.19452-.21018-.48112-.26447-1.00838-.15763-1.51666.10691-.50856.37152-.98047.766-1.35407.39484-.37392.90174-.63196 1.45822-.73674.55658-.10479 1.13314-.05062 1.6555.15446.52215.205.96314.55001 1.27087.98646.3073.43583.46908.94446.46908 1.46174-.0007.69317-.29135 1.3649-.81996 1.86568-.52119.49376-1.23141.78013-1.98053.78983zm3.28949-5.7684-.3175.50113.3175-.50113c-.0358-.02265-.0584-.05143-.0703-.07877-.0118-.02689-.0143-.05437-.0088-.08052.0056-.02643.0203-.0555.0478-.08155.0278-.02639.0672-.04777.1148-.05672.0477-.00897.0967-.00408.1397.01281.0428.01681.0741.0432.0936.07087.0192.02721.0271.05548.0271.08136v.00023c0 .03408-.0139.07391-.0506.10868-.0333.03165-.0824.0553-.1396.06047l-.0227-.00001c-.0493-.00001-.095-.01401-.131-.03685zm-3.0148.51905-.01461-.01847h-.29719c-.53136 0-1.05327.14914-1.49996.43192-.447.28297-.8006.68857-1.01083 1.16945-.21044.48132-.2661 1.01306-.15832 1.52644.10772.51308.37267.97959.75572 1.34251l.42237-.4458-.42236.4458c.3827.36259.86638.60608 1.38828.70444.52179.09833 1.06297.04812 1.55637-.14551l-.22434-.57166.22434.57166c.4936-.19371.92077-.52381 1.22383-.95353.30338-.43017.4676-.93963.4676-1.46384v-.00103c-.0012-.70289-.29672-1.36951-.81011-1.85584-.43731-.41427-1.00248-.66996-1.60079-.73654zm2.3848 8.30098h-5.39174c-.90154-.001-1.75963-.341-2.38754-.936-.62671-.5938-.97262-1.39159-.97363-2.21626v-5.10873c.00108-.82463.34702-1.62235.97371-2.2161.62783-.59483 1.48576-.934839 2.38714-.935883h5.39236c.9014.000975 1.7594.340963 2.3873.935803.6268.59384.9728 1.39173.9738 2.21651v5.10809c-.0009.82482-.3469 1.62277-.9737 2.21667-.628.5949-1.4861.935-2.3877.9359z" fill="#fff" stroke="#fff" stroke-width="1.22821"/></svg>