<svg fill="none" height="20" viewBox="0 0 27 20" width="27" xmlns="http://www.w3.org/2000/svg"><g clip-rule="evenodd" fill="#000" fill-rule="evenodd"><path d="m.5 2c0-.82843.67157-1.5 1.5-1.5h23c.8284 0 1.5.67157 1.5 1.5s-.6716 1.5-1.5 1.5h-23c-.82843 0-1.5-.67157-1.5-1.5z"/><path d="m.5 10c0-.82843.67157-1.5 1.5-1.5h23c.8284 0 1.5.67157 1.5 1.5 0 .8284-.6716 1.5-1.5 1.5h-23c-.82843 0-1.5-.6716-1.5-1.5z"/><path d="m.5 18c0-.8284.67157-1.5 1.5-1.5h23c.8284 0 1.5.6716 1.5 1.5s-.6716 1.5-1.5 1.5h-23c-.82843 0-1.5-.6716-1.5-1.5z"/></g></svg>