<svg fill="none" height="31" viewBox="0 0 31 31" width="31" xmlns="http://www.w3.org/2000/svg" xmlns:xlink="http://www.w3.org/1999/xlink"><linearGradient id="a" gradientUnits="userSpaceOnUse" x1="68.2997" x2="86.3118" y1="65.4628" y2="83.4748"><stop offset="0" stop-color="#efeeee"/><stop offset="1" stop-color="#dededd"/></linearGradient><path d="m6.29004.96521h23.63456v21.14669l-7.4635 7.4636h-16.17106z" fill="url(#a)"/><path d="m22.4609 22.1115h7.4636l-7.4636 7.4635z" fill="#ababab"/><path d="m21.2173 7.1842h-19.90285v9.9514h19.90285z" fill="#c49d7f"/><path d="m5.66809.342285v6.219625h-4.975707v11.19529h4.975707v12.4393h17.41491l7.4636-7.4636v-22.390615zm-3.73178 7.463555h18.65889v8.70746h-18.65889zm21.14669 20.63176v-5.7047h5.7047zm6.2197-6.9486h-7.4636v7.4636h-14.92709v-11.1954h14.92709v-11.19529h-14.92709v-4.9757h22.39069z" fill="#333"/><g fill="#fff"><path d="m6.36714 9.50586c.27367 0 .50255.04602.69038.13808.18784.09205.33711.21271.45155.36196.11444.1493.19654.3197.24629.5113.04852.1903.07464.3868.07464.5859 0 .2736-.04105.5125-.12315.7165s-.19654.3707-.34332.4988c-.14679.1293-.32467.2276-.53365.2911-.20898.0634-.44035.0982-.69411.0982h-.57469v2.1271h-1.07475v-5.32894zm-.32839 2.41324c.21395 0 .3881-.066.51871-.1953.13186-.1294.19779-.3309.19779-.6046 0-.2687-.05722-.4727-.17166-.612-.11444-.1381-.30601-.209-.5747-.209h-.44781v1.6209z"/><path d="m10.9201 9.50391c.3744 0 .6742.06219.9043.1841.2289.1219.4068.29481.5337.52249.1281.2264.2127.4975.2575.8172.0447.3185.0671.6742.0671 1.0661 0 .4677-.0273.8744-.0846 1.2203-.0572.3445-.1554.6306-.2948.8545-.1393.2252-.3259.3906-.5597.5001-.2339.1095-.5299.1642-.8882.1642h-1.69671v-5.32899zm-.209 4.54029c.1891 0 .3408-.0323.4553-.097.1144-.0647.2052-.1717.2724-.3209.0684-.1493.1132-.3458.1344-.5909.0223-.2426.0335-.5461.0335-.9093 0-.3035-.0112-.5697-.0298-.7998-.0199-.2289-.061-.4192-.1232-.571-.0634-.1518-.1542-.2662-.2774-.3421-.1219-.0771-.2848-.1169-.4888-.1169h-.4541v3.7479z"/><path d="m17.1147 9.50488v.88072h-1.9032v1.2539h1.7912v.8807h-1.7912v2.3137h-1.0748v-5.32902z"/></g></svg>