<svg fill="none" height="28" viewBox="0 0 28 28" width="28" xmlns="http://www.w3.org/2000/svg"><g stroke="#fff"><circle cx="14" cy="14" r="13.5"/><path d="m8.84451 21.4689-.00011-.0001-2.04829-1.7999c-.22289-.2281-.33788-.5497-.28247-1.0454.05826-.5211.30407-1.1982.77784-2.0466l.00012-.0002c.79655-1.4279 2.10264-3.0884 3.6837-4.6673l.0003-.0003c1.363-1.3633 2.7357-2.47694 3.9567-3.24604 1.2419-.78232 2.2567-1.16306 2.9218-1.16306.4321 0 .6612.15796.7727.26631l1.8411 2.06631c.0001.00011.0002.00023.0003.00034.0227.02587.0337.05879.0315.0916-.0021.0331-.0171.06397-.0431.08674-.0001 0-.0002.0001-.0002.0001l-3.1256 2.7082-.0004.0004c-.038.033-.0933.0395-.1368.0176l-.001-.0005-2.0981-1.0487-.3223-.1611-.2547.2547-3.7391 3.7382-.255.2548.1613.3225 1.0488 2.0963s0 0 .0001.0001c.023.0463.0157.1004-.0168.1379l-.0003.0004-2.69379 3.1236c-.0001.0001-.0002.0002-.0003.0003-.0216.0248-.05102.04-.08291.0435l-.00735.0003c-.00374.0001-.00519.0001-.00519.0001-.0302 0-.05958-.011-.08245-.0311zm-1.90159-2.005.01066.0105.01128.0099 1.5704 1.38.37905.3331.3296-.3821 2.01099-2.3312.2176-.2523-.149-.298-1.0642-2.1272s0 0 0-.0001c-.0236-.0472-.0148-.1058.0241-.1451.0001-.0001.0002-.0001.0003-.0002l4.3755-4.3738c.0388-.0387.0958-.0481.145-.0237.0001 0 .0002.0001.0003.0001l2.1267 1.0628.2987.1493.2523-.2187 2.3321-2.0212.3825-.33162-.3363-.37841-1.3676-1.53875-.0289-.03258-.0342-.02708c-.1837-.14564-.3916-.17756-.5757-.17756-.3641 0-.794.11787-1.2486.30566-.4639.19166-.9921.47246-1.5642.83531-1.1448.72608-2.4921 1.79773-3.8891 3.19483-1.5457 1.5442-2.84203 3.1799-3.64217 4.6129-.43542.7799-.64202 1.3531-.72299 1.7654-.04048.2061-.05164.3825-.03843.5301.00659.0735.01992.1477.04329.2184.01966.0594.06105.1621.15102.2513z" fill="#d78b88"/></g></svg>