<svg fill="none" height="22" viewBox="0 0 21 22" width="21" xmlns="http://www.w3.org/2000/svg"><path clip-rule="evenodd" d="m9.30447 6.65582c.544-.73312.73903-1.50576.12382-2.18777-1.3807-1.93198-2.30926-3.12671-2.8917-3.70206-1.10728-1.09382-2.92879-.945864-3.88778-.000935-.51509.507535-.68946.681815-1.21834 1.219005-2.94594 2.94752-1.149354 9.17844 3.62662 13.95914 4.77488 4.7796 11.00521 6.5771 13.95731 3.6234.4881-.4705.9013-.884 1.2272-1.2284.9398-.9933 1.0824-2.7345-.0062-3.8656-.5582-.58-1.6974-1.4637-3.7107-2.9038-.6166-.5514-1.3477-.4319-2.018.0079-.3224.2115-.557.4255-1.0001.869l-.8046.805c-.1059.106-1.5448-.6146-2.94163-2.0128-1.39754-1.39887-2.11765-2.83786-2.01218-2.94333l.80511-.80555c.14057-.14071.20777-.20883.29396-.29941.17956-.18872.32823-.35998.45721-.53379zm4.88173 8.07908.8047-.8052c.2438-.2441.4019-.3942.5304-.4976 1.7637 1.2665 2.7851 2.0629 3.2023 2.4963.2504.2603.2115.7352-.0062.9654-.3014.3185-.6929.7102-1.1733 1.1736-1.909 1.9097-6.9383.4587-11.00256-3.6096-4.06559-4.0696-5.51591-9.0996-3.62138-10.99517.52674-.53499.69363-.70179 1.20136-1.20207.19037-.18758.70893-.22971.94051-.00094.44842.44297 1.28023 1.50804 2.50386 3.21254-.06334.07865-.14246.16752-.23874.26871-.07067.07427-.12954.13395-.25825.26279l-.80432.80476c-1.36831 1.36819-.20301 3.69678 2.01139 5.91338 2.21293 2.2151 4.54233 3.3817 5.91023 2.0131zm-1.9439-14.6616578c4.5394.5502398 8.1389 4.1496878 8.6891 8.6891778l-2.0742.3457c-.4005-3.65649-3.3042-6.56017-6.9606-6.96067zm-.6921 4.1507578c2.7736.24807 4.9826 2.45707 5.2306 5.23067l-2.0808.34681c-.0883-1.89093-1.6057-3.40831-3.4966-3.49662z" fill="#c49d7f" fill-rule="evenodd"/></svg>