<svg fill="none" height="28" viewBox="0 0 28 28" width="28" xmlns="http://www.w3.org/2000/svg" xmlns:xlink="http://www.w3.org/1999/xlink"><clipPath id="a"><path d="m5.59961 5.59998h16v16h-16z"/></clipPath><circle cx="14" cy="14" r="13.5" stroke="#fff"/><g clip-path="url(#a)"><path d="m13.5996 5.59998c4.4184 0 8 3.5816 8 8.00002 0 4.4184-3.5816 8-8 8-4.41839 0-7.99999-3.5816-7.99999-8 0-4.41842 3.5816-8.00002 7.99999-8.00002zm0 1.116c-1.8257 0-3.5767.72527-4.86771 2.01627-1.291 1.29105-2.01628 3.04195-2.01628 4.86775 0 1.8257.72528 3.5767 2.01628 4.8677 1.29101 1.291 3.04201 2.0163 4.86771 2.0163 1.8258 0 3.5767-.7253 4.8677-2.0163s2.0163-3.042 2.0163-4.8677c0-1.8258-.7253-3.5767-2.0163-4.86775-1.291-1.291-3.0419-2.01627-4.8677-2.01627zm-.744 3.34882c.308 0 .5576.2504.5576.5584v3.9072h3.9072c.1443.0054.2809.0666.3811.1707.1002.104.1562.2428.1562.3873 0 .1444-.056.2832-.1562.3873-.1002.104-.2368.1652-.3811.1707h-4.4648c-.1481 0-.2901-.0589-.3948-.1636-.1048-.1047-.1636-.2467-.1636-.3948v-4.464c0-.3088.2496-.5592.5584-.5592z" fill="#fff"/></g></svg>