<svg height="14" viewBox="0 0 14 14" width="14" xmlns="http://www.w3.org/2000/svg"><path d="m11.4375 4.082031c-.046875-.175781-.171875-.308593-.316406-.347656-.253906-.070313-1.496094-.234375-4.121094-.234375s-3.867188.164062-4.125.234375c-.140625.039063-.265625.171875-.3125.347656-.0625.246094-.230469 1.28125-.230469 2.917969s.167969 2.671875.230469 2.921875c.046875.171875.171875.304687.316406.34375.253906.070313 1.496094.234375 4.121094.234375s3.867188-.164062 4.125-.234375c.140625-.039063.265625-.171875.3125-.347656.0625-.246094.230469-1.285157.230469-2.917969s-.167969-2.671875-.230469-2.917969zm1.128906-.292969c.265625 1.039063.265625 3.210938.265625 3.210938s0 2.171875-.265625 3.210938c-.148437.574218-.582031 1.023437-1.128906 1.179687-1 .277344-4.4375.277344-4.4375.277344s-3.4375 0-4.4375-.277344c-.550781-.15625-.984375-.609375-1.128906-1.179687-.265625-1.039063-.265625-3.210938-.265625-3.210938s0-2.171875.265625-3.210938c.148437-.574218.582031-1.023437 1.128906-1.179687 1-.277344 4.4375-.277344 4.4375-.277344s3.4375 0 4.4375.277344c.550781.15625.984375.609375 1.128906 1.179687zm-6.734375 5.253907v-4.085938l3.5 2.042969zm0 0" fill="#fff"/></svg>