<svg fill="none" height="76" viewBox="0 0 76 76" width="76" xmlns="http://www.w3.org/2000/svg" xmlns:xlink="http://www.w3.org/1999/xlink"><clipPath id="a"><path d="m13 13h50v50h-50z"/></clipPath><circle cx="38" cy="38" fill="#c49d7f" r="38"/><g clip-path="url(#a)" fill="#fff"><path d="m47.3752 42.6875c-.4077.0024-.8002-.1546-1.0937-.4375l-6.625-6.4063c-1.0172-.9729-1.8267-2.1418-2.3798-3.4362s-.8382-2.6874-.8382-4.095.2851-2.8006.8382-4.095 1.3626-2.4633 2.3798-3.4363c2.0823-1.9795 4.8456-3.0833 7.7187-3.0833s5.6364 1.1038 7.7188 3.0833c1.0172.973 1.8267 2.1419 2.3798 3.4363.553 1.2944.8382 2.6874.8382 4.095s-.2852 2.8006-.8382 4.095c-.5531 1.2944-1.3626 2.4633-2.3798 3.4362l-6.625 6.4063c-.2936.2829-.6861.4399-1.0938.4375zm0-21.875c-2.0676-.0127-4.0583.7836-5.5468 2.2187-.7168.6803-1.2876 1.4994-1.6776 2.4073-.3901.908-.5912 1.8858-.5912 2.874s.2011 1.966.5912 2.874c.39.9079.9608 1.727 1.6776 2.4072l5.5468 5.3594 5.5469-5.3594c.7168-.6802 1.2875-1.4993 1.6776-2.4072.39-.908.5912-1.8858.5912-2.874s-.2012-1.966-.5912-2.874c-.3901-.9079-.9608-1.727-1.6776-2.4073-1.4904-1.4323-3.4798-2.2281-5.5469-2.2187z"/><path d="m30.1875 58.3125c-.2737.0019-.5431-.0682-.7812-.2031l-10.9375-6.25c-.2385-.1377-.4363-.3359-.5735-.5746-.1372-.2388-.2089-.5095-.2078-.7848v-28.125c-.0011-.2753.0706-.5461.2078-.7848s.335-.4369.5735-.5746c.2375-.1371.5069-.2093.7812-.2093s.5437.0722.7813.2093l10.9375 6.25c.2384.1377.4362.3359.5734.5746s.2089.5095.2078.7848v28.125c.0011.2753-.0706.546-.2078.7848-.1372.2387-.335.4369-.5734.5746-.2382.1349-.5076.205-.7813.2031zm-9.375-8.7188 7.8125 4.4688v-24.5313l-7.8125-4.4687z"/><path d="m30.1875 58.3125c-.2737.0019-.5431-.0682-.7812-.2031-.2385-.1377-.4363-.3359-.5735-.5746-.1372-.2388-.2089-.5095-.2078-.7848v-28.125c-.0011-.2753.0706-.5461.2078-.7848s.335-.4369.5735-.5746l9.375-5.3594c.1792-.1026.3771-.1688.5821-.1945.2049-.0257.413-.0105.6121.0447.199.0552.3852.1494.5476.277.1625.1277.298.2862.3988.4666.2037.3588.2572.7835.1489 1.1816-.1083.3982-.3696.7373-.727.9434l-8.5938 4.9062v24.5313l8.5938-4.9219c.1785-.1026.3755-.169.5796-.1955.2042-.0265.4116-.0125.6104.0412s.385.146.5481.2717.2999.2822.4025.4607.169.3755.1955.5797.0124.4116-.0412.6104c-.0537.1988-.146.385-.2717.5481s-.2822.2999-.4607.4025l-10.9375 6.25c-.2382.1349-.5076.205-.7813.2031z"/><path d="m52.0625 58.3125c-.2737.0019-.5431-.0682-.7812-.2031l-10.9375-6.25c-.2385-.1377-.4363-.3359-.5735-.5746s-.2089-.5095-.2078-.7848v-14.0625c0-.4144.1646-.8118.4577-1.1049.293-.293.6904-.4576 1.1048-.4576s.8118.1646 1.1049.4576c.293.2931.4576.6905.4576 1.1049v13.1563l7.8125 4.4687v-16.0625c0-.4144.1646-.8118.4577-1.1049.293-.293.6904-.4576 1.1048-.4576s.8118.1646 1.1049.4576c.293.2931.4576.6905.4576 1.1049v18.75c.0011.2753-.0706.5461-.2078.7848s-.335.4369-.5734.5746c-.2382.1349-.5076.205-.7813.2031z"/><path d="m47.375 33.3125c-.9271 0-1.8334-.2749-2.6042-.79-.7709-.5151-1.3717-1.2471-1.7265-2.1037-.3548-.8565-.4476-1.799-.2667-2.7083.1808-.9093.6273-1.7445 1.2828-2.4001.6556-.6555 1.4908-1.102 2.4001-1.2828.9093-.1809 1.8518-.0881 2.7083.2667.8566.3548 1.5886.9556 2.1037 1.7265.5151.7708.79 1.6771.79 2.6042 0 1.2432-.4939 2.4355-1.3729 3.3146-.8791.879-2.0714 1.3729-3.3146 1.3729zm0-6.25c-.309 0-.6111.0916-.8681.2633-.2569.1717-.4572.4157-.5755.7013-.1182.2855-.1492.5996-.0889.9027s.2091.5815.4276.8001c.2186.2185.497.3673.8001.4276s.6172.0293.9027-.0889c.2856-.1183.5296-.3186.7013-.5755.1717-.257.2633-.5591.2633-.8681 0-.4144-.1646-.8118-.4576-1.1049-.2931-.293-.6905-.4576-1.1049-.4576z"/></g></svg>