<svg fill="none" height="76" viewBox="0 0 76 76" width="76" xmlns="http://www.w3.org/2000/svg" xmlns:xlink="http://www.w3.org/1999/xlink"><clipPath id="a"><path d="m10 17h56.6201v46h-56.6201z"/></clipPath><circle cx="38" cy="38" fill="#c49d7f" r="38"/><g clip-path="url(#a)"><path d="m52.8195 45.5468c-3.2624 0-5.8906 2.6281-5.8906 5.8907v.4532h-2.7189v-.4532c0-3.2625-2.6281-5.8907-5.8907-5.8907-3.2625 0-5.8907 2.6281-5.8907 5.8907v.4532h-2.7189v-.4532c0-3.2625-2.6281-5.8907-5.8906-5.8907-3.2619 0-5.8901 2.6281-5.8901 5.8907v5.8907c0 .4984.4078.9061.9062.9061h38.9685c.4985 0 .9062-.4077.9062-.9061l.0003-5.8907c0-3.2625-2.6281-5.8907-5.8907-5.8907zm-33.0779 5.8907c0-2.2656 1.8123-4.078 4.0779-4.078 2.2657 0 4.078 1.8124 4.078 4.078v4.9845l-8.1562-.0003zm9.9687 2.2656h2.7189v2.7189h-2.7189zm4.5312-.9065v-1.3594c0-2.2657 1.8123-4.078 4.078-4.078 2.2656 0 4.0779 1.8123 4.0779 4.078v4.9845h-8.1562zm9.9687.9065h2.7189v2.7189h-2.7189zm12.6874 2.7186h-8.1562v-4.9845c0-2.2657 1.8124-4.078 4.078-4.078s4.0779 1.8123 4.0779 4.078zm-.9065-35.3436h-35.3435c-1.4953 0-2.7189 1.2235-2.7189 2.7189v16.3124c0 1.4953 1.2235 2.7189 2.7189 2.7189h35.3435c1.4953 0 2.7189-1.2235 2.7189-2.7189l-.0003-16.3124c0-1.4953-1.2235-2.7189-2.7189-2.7189zm.9065 19.0312c0 .4984-.4077.9061-.9061.9061h-35.3436c-.4984 0-.9061-.4077-.9061-.9061l-.0003-16.3124c0-.4985.4077-.9062.9061-.9062h35.3435c.4985 0 .9062.4077.9062.9062zm-12.2343-8.9265-9.0624-5.4374c-.2718-.1811-.6344-.1811-.9062 0s-.4532.4532-.4532.7702v10.875c0 .3173.1811.6343.4532.7702.1359.0908.2718.1359.4533.1359.1811 0 .3173-.0451.4532-.1359l9.0625-5.4374c.2718-.1811.4532-.4532.4532-.7702-.0003-.3174-.1814-.6344-.4535-.7703zm-8.6093 4.6216v-7.703l6.3891 3.8517z" fill="#fff" stroke="#fff"/></g></svg>