<svg fill="none" height="76" viewBox="0 0 76 76" width="76" xmlns="http://www.w3.org/2000/svg" xmlns:xlink="http://www.w3.org/1999/xlink"><clipPath id="a"><path d="m15 17h45v45h-45z"/></clipPath><circle cx="38" cy="38" fill="#c49d7f" r="38"/><g clip-path="url(#a)"><g fill="#fff"><path d="m56.25 32h-16.875v-11.25h-3.75v11.25h-16.875v26.25h37.5zm-3.75 22.5h-30v-18.75h30z"/><path d="m30 39.5h-3.75v3.75h3.75z"/><path d="m30 47h-3.75v3.75h3.75z"/><path d="m37.5 39.5h-3.75v3.75h3.75z"/><path d="m41.25 47h-7.5v3.75h7.5z"/><path d="m48.75 39.5h-7.5v3.75h7.5z"/><path d="m48.75 47h-3.75v3.75h3.75z"/></g><path d="m17 32.5 20.5-14 21 14" stroke="#fff" stroke-width="4"/></g></svg>