<svg fill="none" height="76" viewBox="0 0 76 76" width="76" xmlns="http://www.w3.org/2000/svg"><circle cx="38" cy="38" fill="#c49d7f" r="38"/><path clip-rule="evenodd" d="m34.6874 49.637c1.6272-1.6271 4.2654-1.6271 5.8926 0l-2.9463 2.9463zm-5.8925-5.8925c4.8815-4.8816 12.7961-4.8816 17.6776 0l-2.9462 2.9463c-3.2544-3.2544-8.5308-3.2544-11.7852 0zm-5.8926-5.8926c8.1359-8.1359 21.3269-8.1359 29.4628 0l-2.9463 2.9463c-6.5087-6.5087-17.0615-6.5087-23.5702 0zm-5.7353-5.7353c.0518-.0525.1038-.105.1561-.1572 11.338-11.3381 29.6882-11.3901 41.0906-.1561l-2.9464 2.9464c-9.7751-9.6069-25.4871-9.5549-35.198.156-.0522.0522-.1042.1047-.1559.1573z" fill="#fff" fill-rule="evenodd"/></svg>