<svg fill="none" height="76" viewBox="0 0 76 76" width="76" xmlns="http://www.w3.org/2000/svg"><circle cx="38" cy="38" fill="#c49d7f" r="38"/><g stroke="#fff" stroke-linecap="round" stroke-linejoin="round" stroke-width="3.33333"><path d="m49.6667 31.3335h-23.3334c-1.8409 0-3.3333 1.4924-3.3333 3.3333v16.6667c0 1.8409 1.4924 3.3333 3.3333 3.3333h23.3334c1.8409 0 3.3333-1.4924 3.3333-3.3333v-16.6667c0-1.8409-1.4924-3.3333-3.3333-3.3333z"/><path d="m38 26.3335c0-.9889-.2932-1.9556-.8427-2.7779-.5494-.8222-1.3303-1.4631-2.2439-1.8415s-1.9189-.4775-2.8889-.2845c-.9699.1929-1.8608.6691-2.56 1.3684-.6993.6992-1.1755 1.5901-1.3684 2.56-.193.97-.0939 1.9753.2845 2.8889s1.0193 1.6945 1.8415 2.2439c.8223.5495 1.789.8427 2.7779.8427m10 0c.9889 0 1.9556-.2932 2.7778-.8427.8223-.5494 1.4632-1.3303 1.8416-2.2439s.4775-1.9189.2845-2.8889c-.1929-.9699-.6691-1.8608-1.3684-2.56-.6992-.6993-1.5901-1.1755-2.56-1.3684-.97-.193-1.9753-.0939-2.8889.2845s-1.6945 1.0193-2.2439 1.8415c-.5495.8223-.8427 1.789-.8427 2.7779m0 0v28.3333m15-11.6666h-30"/></g></svg>