<svg fill="none" height="76" viewBox="0 0 76 76" width="76" xmlns="http://www.w3.org/2000/svg"><circle cx="38" cy="38" fill="#c49d7f" r="38"/><path d="m55.574 32.0458c-.25.054-3.606.836-7.906 3.548-.646-3.134-2.558-9.002-8.216-14.97l-1.452-1.532-1.452 1.534c-5.678 5.99-7.582 11.874-8.222 15.028-4.316-2.758-7.646-3.55-7.89-3.606l-2.436-.544v2.496c0 14.58 7.85 24 20 24 11.962 0 20-9.644 20-24v-2.484zm-23.576 6.03c.004-.066.304-6.2 6.002-13.064 5.628 6.8 6 12.988 6 12.988v.25c-2.2429 1.8638-4.2629 3.9805-6.02 6.308-1.7621-2.2864-3.7679-4.374-5.982-6.226zm6.002 15.924c-10.632 0-15.098-8.392-15.874-17.128 3.31 1.436 9.232 4.852 14.214 12.246l1.682 2.498 1.65-2.52c4.852-7.416 10.85-10.822 14.192-12.244-.796 8.456-5.256 17.148-15.864 17.148z" fill="#fff"/></svg>