<svg fill="none" height="76" viewBox="0 0 76 76" width="76" xmlns="http://www.w3.org/2000/svg" xmlns:xlink="http://www.w3.org/1999/xlink"><clipPath id="a"><path d="m6 14h62.9261v52h-62.9261z"/></clipPath><circle cx="38" cy="38" fill="#c49d7f" r="38"/><g clip-path="url(#a)" fill="#fff"><path d="m59.0945 37.1649h-3.7414c-.4623-4.0478-2.2819-7.8198-5.1627-10.7004s-6.6527-4.7005-10.7003-5.1627v-3.7414c0-.7197-.384-1.3847-1.0071-1.7447-.6232-.3597-1.3911-.3597-2.0142 0-.6231.36-1.0071 1.025-1.0071 1.7447v3.7414c-4.0477.4623-7.8197 2.2819-10.7003 5.1627s-4.7005 6.6528-5.1627 10.7004h-3.7414c-.7198 0-1.3847.3839-1.7447 1.007-.3598.6232-.3598 1.3911 0 2.0142.36.6232 1.0249 1.0071 1.7447 1.0071h3.7414c.4623 4.0478 2.2819 7.8197 5.1627 10.7004 2.8808 2.8806 6.6527 4.7004 10.7003 5.1626v3.7418-.0004c0 .7198.384 1.3847 1.0071 1.7448.6232.3597 1.3911.3597 2.0142 0 .6232-.3601 1.0071-1.025 1.0071-1.7448v-3.7413c4.0478-.4623 7.8197-2.2819 10.7003-5.1627 2.8807-2.8808 4.7005-6.6528 5.1627-10.7004h3.7418-.0004c.7198 0 1.3847-.3839 1.7448-1.0071.3597-.6231.3597-1.391 0-2.0141-.3601-.6232-1.025-1.0071-1.7448-1.0071zm-19.6049 15.8279v-1.652c0-.7194-.3839-1.3844-1.0071-1.7444-.6231-.3597-1.391-.3597-2.0141 0-.6232.36-1.0071 1.025-1.0071 1.7444v1.652c-2.9732-.4394-5.7255-1.8238-7.8507-3.9486-2.1249-2.1253-3.5092-4.8775-3.9487-7.8507h1.6521c.7194 0 1.3844-.384 1.7444-1.0071.3597-.6232.3597-1.3911 0-2.0142-.3601-.6231-1.025-1.0071-1.7444-1.0071h-1.6521c.4395-2.9731 1.8238-5.7254 3.9487-7.8506 2.1252-2.1249 4.8774-3.5092 7.8507-3.9487v1.652c0 .7194.3839 1.3844 1.0071 1.7444.6231.3597 1.391.3597 2.0141 0 .6232-.36 1.0071-1.025 1.0071-1.7444v-1.652c2.9732.4394 5.7255 1.8238 7.8507 3.9487 2.1249 2.1252 3.5092 4.8774 3.9487 7.8506h-1.6521c-.7194 0-1.3844.384-1.7444 1.0071-.3597.6232-.3597 1.3911 0 2.0142.3601.6232 1.025 1.0071 1.7444 1.0071h1.6521c-.4395 2.9731-1.8238 5.7254-3.9487 7.8507-2.1252 2.1248-4.8774 3.5092-7.8507 3.9486z"/><path d="m37.4746 32.0083c-1.9017 0-3.726.7552-5.0707 2.1002-1.345 1.3447-2.1002 3.1689-2.1002 5.0707 0 1.9019.7553 3.726 2.1002 5.0707 1.3447 1.345 3.1689 2.1002 5.0707 2.1002 1.9019 0 3.726-.7552 5.0707-2.1002 1.345-1.3447 2.1003-3.1688 2.1003-5.0707-.0025-1.9011-.7588-3.7235-2.1032-5.0678-1.3443-1.3443-3.1667-2.1006-5.0678-2.1031zm0 10.3137c-.8335 0-1.6327-.3313-2.2221-.9203-.5891-.5895-.9204-1.3886-.9204-2.2222s.3313-1.6327.9204-2.2222c.5894-.5891 1.3885-.9203 2.2221-.9203.8337 0 1.6327.3313 2.2222.9203.5891.5895.9203 1.3886.9203 2.2222-.0014.8329-.333 1.6317-.9221 2.2204-.5887.5891-1.3876.9206-2.2204.9221z"/></g></svg>