<svg fill="none" height="28" viewBox="0 0 28 28" width="28" xmlns="http://www.w3.org/2000/svg"><g stroke="#fff"><circle cx="14" cy="14" r="13.5"/><path d="m20.3333 10.9574v-.7895c.1055.1939.1667.4202.1667.6654v7.3334c0 .7568-.583 1.3333-1.25 1.3333h-10.5c-.66703 0-1.25-.5765-1.25-1.3333v-7.3334c0-.2452.06121-.4715.16667-.6654v.7895 7.2093c0 .5916.46442 1.1111 1.08333 1.1111h10.5c.6189 0 1.0833-.5195 1.0833-1.1111zm-.1219-.97519-.7011.59359-5.467 4.6285-.0014.0012c-.0083.007-.0156.0109-.0219.0132s-.013.0035-.02.0035-.0137-.0012-.02-.0035-.0136-.0062-.0218-.0132l-.0015-.0012-5.46696-4.6285-.70109-.59359c.04124-.05261.08616-.1017.13424-.14686l.9077.76845 4.84631 4.103.3231.2735.3231-.2735 4.8463-4.103.9077-.76845c.0481.04516.093.09425.1343.14686zm-.9614-.48221c.2501 0 .4883.08103.6885.22222h-1.0922-9.69263-1.09216c.20016-.14119.43842-.22222.68849-.22222z" fill="#d78b88"/></g></svg>