<svg fill="none" height="24" viewBox="0 0 25 24" width="25" xmlns="http://www.w3.org/2000/svg"><path d="m24.4217 11.8058c0 6.2189-5.3293 11.3058-11.9609 11.3058-6.63153 0-11.9608-5.0869-11.9608-11.3058 0-6.21893 5.32927-11.3058 11.9608-11.3058 6.6316 0 11.9609 5.08687 11.9609 11.3058z" stroke="#fff"/><path d="m14.6563 16.9519h-4.3909c-.85801-.0009-1.6806-.3243-2.28728-.8991-.60669-.5749-.94792-1.3542-.94882-2.1671v-4.16016c.00097-.81287.34222-1.59219.9489-2.16697.60667-.57479 1.42923-.89811 2.2872-.89902h4.3909c.858.00086 1.6806.32415 2.2874.89894.6067.57479.948 1.35414.949 2.16705v4.16016c-.001.8129-.3422 1.5923-.9489 2.1672-.6068.5748-1.4294.8981-2.2875.899zm-4.3909-9.25714c-.56828.00063-1.11309.21479-1.51492.5955s-.62787.89688-.62854 1.43528v4.16016c.00067.5383.22672 1.0545.62856 1.4352.40183.3806.94664.5948 1.5149.5953h4.3909c.5683-.0005 1.113-.2147 1.5149-.5953.4018-.3807.6277-.8969.6284-1.4352v-4.16016c-.0007-.53838-.2266-1.05456-.6284-1.43527-.4018-.38072-.9466-.59488-1.5149-.59551zm2.1949 6.77254c-.5556-.0002-1.0987-.1565-1.5606-.449-.4619-.2926-.8219-.7084-1.03439-1.1948s-.26798-1.0216-.15946-1.5379c.10853-.5163.37615-.9905.76915-1.36266s.8936-.62557 1.4386-.72818 1.1098-.04981 1.6231.15171.952.54272 1.2607.98043c.3086.4378.4733.9524.4733 1.4788-.0008.7058-.297 1.3825-.8238 1.8815s-1.241.7797-1.9859.7803zm0-4.289c-.3396 0-.6715.0954-.9538.2741-.2824.1787-.5024.4328-.6323.73-.13.2972-.164.6242-.0977.9398.0662.3155.2297.6053.4698.8328s.546.3824.8791.4452c.333.0627.6782.0305.9919-.0926s.5818-.3316.7705-.5991c.1886-.2675.2893-.5819.2893-.9037-.0007-.4309-.1818-.8441-.5034-1.1488-.3217-.3048-.7578-.4762-1.2127-.4769zm2.8149-.37759c-.1331-.00005-.2633-.0375-.374-.10764-.1107-.07013-.197-.16979-.2479-.28637-.0509-.11659-.0642-.24486-.0382-.3686.0261-.12374.0902-.23739.1844-.32657.0942-.08919.2142-.14991.3448-.17448.1307-.02457.266-.0119.3891.03643.123.04832.2281.13012.3021.23505.0739.10493.1133.22828.1133.35446 0 .16917-.0709.33143-.197.45116-.1262.11973-.2973.18714-.4759.18742z" fill="#fff"/></svg>