<svg fill="none" height="23" viewBox="0 0 23 23" width="23" xmlns="http://www.w3.org/2000/svg"><g fill="#000"><path d="m23 9.0293v4.9414c-.0099.1186-.027.2367-.0283.3553-.0148 1.1289-.0404 2.256-.2839 3.3669-.6348 2.897-2.8081 4.8507-5.7666 5.1279-.9888.0925-1.9851.0997-2.9779.1478-.0961.0044-.1914.0211-.2871.0318h-4.31245c-.11814-.0112-.23584-.026-.35443-.0332-1.10373-.0642-2.22274-.0337-3.3085-.2084-2.57717-.4147-4.34934-1.8629-5.182636-4.3745-.344551-1.0382-.4290043-2.119-.4559574-3.2061-.0089844-.3728-.0278516-.7453-.0422266-1.1177v-5.12105c.0139258-.32748.0188672-.65586.043125-.98289.0552539-.73717.068281-1.48197.190918-2.20836.475723-2.8139 2.064157-4.67187 4.855157-5.389723.73627-.189571 1.5215-.200352 2.28652-.2632426.65407-.0539063 1.31172-.0651367 1.96803-.0952344h4.31245c.1182.0112305.2359.0260547.3545.0332422 1.0965.0633398 2.2074.0341406 3.2865.2052928 2.6575.421367 4.4445 1.929395 5.2495 4.527675.31.99996.3855 2.03721.4106 3.0785.0095.39531.0283.79017.0427 1.18504zm-11.6896-7.27735c-1.61761.06918-3.42706.06739-5.21854.24617-1.83282.18239-3.14498 1.18954-3.80938 2.95092-.3185.84408-.42092 1.73174-.4308 2.62344-.02471 2.23801-.03953 4.47692-.01752 6.71492.00898.9326.0575 1.8737.19855 2.7941.35444 2.3099 2.11807 3.875 4.44188 3.9788 1.62258.0723 3.24695.1406 4.87041.132 1.8477-.0098 3.7029-.0202 5.5402-.1904 1.902-.1761 3.234-1.2367 3.8763-3.0776.2866-.8212.3801-1.6797.3882-2.5413.022-2.238.0368-4.4769.0148-6.71487-.009-.91776-.0584-1.8436-.1972-2.74922-.3549-2.30989-2.114-3.86912-4.4419-3.97918-1.6747-.07907-3.3507-.12174-5.2141-.18688z"/><path d="m5.83984 11.4856c.00629-3.09285 2.53314-5.60757 5.62826-5.60084 3.0929.00674 5.6085 2.5345 5.6013 5.62874-.0072 3.0928-2.5349 5.608-5.6291 5.6013-3.09247-.0068-5.60675-2.5341-5.60046-5.6292zm9.43266.0135c0-2.10145-1.7119-3.81522-3.8129-3.81746-2.10238-.00225-3.81929 1.70748-3.82288 3.80666-.0036 2.1131 1.71197 3.8314 3.82378 3.8296 2.0996-.0022 3.8125-1.7178 3.8125-3.8188z"/><path d="m17.6983 6.7823c-.7466 0-1.3512-.60959-1.3467-1.35844.0044-.73672.6082-1.33553 1.3463-1.33553.7466 0 1.3526.61049 1.3472 1.35799-.005.73582-.6101 1.33598-1.3472 1.33598z"/></g></svg>