<svg fill="none" height="24" viewBox="0 0 20 24" width="20" xmlns="http://www.w3.org/2000/svg"><path clip-rule="evenodd" d="m9.51542 23.6063.69538-.6072c5.8477-5.1062 8.82-9.5646 8.82-13.48368 0-5.54996-4.3316-9.51542-9.51538-9.51542-5.18373 0-9.51542 3.96546-9.51542 9.51542 0 3.91908 2.97231 8.37748 8.82003 13.48368zm0-2.8168c-4.96217-4.4721-7.40088-8.2617-7.40088-11.27408 0-4.33839 3.34532-7.40088 7.40088-7.40088 4.05558 0 7.40088 3.06249 7.40088 7.40088 0 3.01238-2.4387 6.80198-7.40088 11.27408zm.00026-16.56042c2.91962 0 5.28632 2.36678 5.28632 5.28634 0 2.91958-2.3667 5.28638-5.28632 5.28638-2.91957 0-5.28634-2.3668-5.28634-5.28638 0-2.91956 2.36677-5.28634 5.28634-5.28634zm-3.17206 5.28623c0-1.75174 1.42006-3.1718 3.1718-3.1718 1.75178 0 3.17178 1.42006 3.17178 3.1718 0 1.75179-1.42 3.17179-3.17178 3.17179-1.75174 0-3.1718-1.42-3.1718-3.17179z" fill="#c49d7f" fill-rule="evenodd"/></svg>