<svg fill="none" height="28" viewBox="0 0 28 28" width="28" xmlns="http://www.w3.org/2000/svg"><g stroke="#fff"><circle cx="14" cy="14" r="13.5"/><path d="m13.5678 21.4738-.0004.0003c-.0203.0179-.0437.0259-.0674.0259s-.0471-.008-.0674-.0259l-.0004-.0003c-.0909-.0799-1.3372-1.1866-2.5569-2.8398-1.22917-1.6659-2.3753-3.812-2.3753-5.9821 0-2.85308 2.256-5.1519 5-5.1519s5 2.29882 5 5.1519c0 2.1701-1.1461 4.3162-2.3753 5.9821-1.2197 1.6532-2.466 2.7599-2.5569 2.8398zm-.4184-.5917.3502.3432.35-.3434c.5789-.5681 1.6755-1.7217 2.6306-3.1708.9487-1.4393 1.7976-3.2296 1.7976-5.0592 0-2.69015-2.1301-4.9019-4.7778-4.9019s-4.77778 2.21175-4.77778 4.9019c0 1.8326.84847 3.6232 1.79698 5.062.9548 1.4486 2.0513 2.6007 2.6302 3.1682zm.3506-6.2108c-1.0614 0-1.9444-.8868-1.9444-2 0-1.1133.883-2.0001 1.9444-2.0001s1.9444.8868 1.9444 2.0001c0 1.1132-.883 2-1.9444 2zm0-3.7501c-.9601 0-1.7222.7958-1.7222 1.7501 0 .955.7622 1.75 1.7222 1.75s1.7222-.795 1.7222-1.75c0-.9543-.7621-1.7501-1.7222-1.7501z" fill="#d78b88"/></g></svg>