<svg fill="none" height="71" viewBox="0 0 63 71" width="63" xmlns="http://www.w3.org/2000/svg" xmlns:xlink="http://www.w3.org/1999/xlink"><clipPath id="a"><path d="m0 0h63v70.3228h-63z"/></clipPath><g clip-path="url(#a)"><path clip-rule="evenodd" d="m31.501.334473c5.5919-.000184 11.0808 1.504067 15.8913 4.355037s8.7654 6.94369 11.45 11.84889c2.6846 4.9053 4.0001 10.4425 3.8084 16.0311-.1916 5.5886-1.8832 11.0227-4.8975 15.7326h-52.51891c-3.01294-4.7113-4.703009-10.1464-4.893041-15.7355s1.126971-11.1264 3.812951-16.0315c2.68599-4.9051 6.642-8.99728 11.4535-11.84763 4.8114-2.85035 10.301-4.353883 15.8933-4.352997z" fill="#c59d7e" fill-rule="evenodd"/><path d="m31.501.334473c5.5919-.000184 11.0808 1.504067 15.8913 4.355037s8.7654 6.94369 11.45 11.84889c2.6846 4.9053 4.0001 10.4425 3.8084 16.0311-.1916 5.5886-1.8832 11.0227-4.8975 15.7326h-52.51891c-3.01294-4.7113-4.703009-10.1464-4.893041-15.7355s1.126971-11.1264 3.812951-16.0315c2.68599-4.9051 6.642-8.99728 11.4535-11.84763 4.8114-2.85035 10.301-4.353883 15.8933-4.352997z" stroke="#222b3c" stroke-miterlimit="10" stroke-width=".665974"/><g fill="#222b3c"><path clip-rule="evenodd" d="m17.3641 24.0565c.0817 0 .1616.0242.2295.0696s.1208.1099.1521.1853c.0312.0755.0394.1585.0235.2386-.016.0802-.0553.1537-.1131.2115-.0577.0577-.1313.0971-.2114.113s-.1631.0078-.2386-.0235c-.0755-.0312-.14-.0842-.1853-.1521-.0454-.0679-.0696-.1477-.0696-.2294.0007-.1093.0445-.2139.1218-.2912.0772-.0773.1818-.121.2911-.1218z" fill-rule="evenodd"/><path clip-rule="evenodd" d="m21.3372 15.6693c.149 0 .2946.0442.4185.127.1238.0827.2204.2004.2774.338s.0719.2891.0429.4352c-.0291.1461-.1008.2803-.2062.3856-.1053.1054-.2395.1771-.3857.2062-.1461.029-.2975.0141-.4351-.0429-.1377-.057-.2553-.1535-.3381-.2774-.0827-.1239-.1269-.2695-.1269-.4185 0-.0989.0195-.1968.0573-.2882.0379-.0914.0934-.1744.1633-.2444.0699-.0699.153-.1254.2444-.1633.0913-.0378.1893-.0573.2882-.0573z" fill-rule="evenodd"/><path clip-rule="evenodd" d="m45.6585 18.3215c.1488.0006.2942.0453.4176.1284.1235.0831.2196.2009.2762.3386.0565.1377.071.2891.0417.435-.0294.1459-.1014.2798-.2069.3849-.1054.105-.2396.1765-.3857.2053-.146.0288-.2973.0138-.4347-.0433-.1375-.0571-.255-.1537-.3376-.2775s-.1268-.2693-.1268-.4181c0-.0992.0196-.1974.0577-.289.038-.0915.0937-.1747.164-.2447.0702-.07.1536-.1254.2453-.1631.0918-.0376.19-.0568.2892-.0565z" fill-rule="evenodd"/><path clip-rule="evenodd" d="m13.7118 19.3365c.0817 0 .1615.0243.2294.0696.0679.0454.1209.1099.1521.1854.0313.0754.0395.1585.0235.2386-.0159.0801-.0552.1537-.113.2114-.0578.0578-.1313.0971-.2114.113-.0802.016-.1632.0078-.2386-.0235-.0755-.0312-.14-.0841-.1854-.1521-.0454-.0679-.0696-.1477-.0696-.2294 0-.1095.0435-.2146.121-.292.0774-.0774.1825-.121.292-.121z" fill-rule="evenodd"/><path clip-rule="evenodd" d="m52.0331 24.0159c.0818-.0006.1619.0231.2302.0682.0683.045.1217.1093.1534.1847s.0403.1585.0247.2388-.0547.1542-.1123.2122c-.0577.0581-.1313.0977-.2114.1138-.0802.0162-.1634.0082-.239-.023-.0757-.0311-.1403-.0841-.1858-.152-.0455-.068-.0698-.148-.0698-.2298-.0004-.0541.0099-.1077.0303-.1578.0205-.0501.0506-.0956.0887-.134s.0835-.0688.1334-.0896c.05-.0208.1035-.0315.1576-.0315z" fill-rule="evenodd"/><path clip-rule="evenodd" d="m31.2768 15.3175c-2.2742-1.9253 1.8002-2.6872.8725 0-.4624 1.3377-2.5098 1.297-3.423.5118-3.8969-3.3648 3.7399-9.13752 6.9041-3.199 1.1138 2.0677.759 4.6531-.6689 6.4649 1.0033-1.4977 1.8525-1.8583 1.6867-4.5542-.1134-1.8525-.9393-3.5393-2.5417-4.55134-3.3648-2.12297-8.3145.58164-7.381 4.68504 1.14 5.0138 8.0906 3.4084 7.125-1.044-.4478-2.0764-3.1408-1.9543-3.9144-1.204-1.0586 1.0237-1.3901 2.7134 1.3378 2.9082" fill-rule="evenodd"/><path d="m3.70147 35.035h.12505c.45172.0396.87546.2356 1.19822.5541s.52432.7396.56996 1.1908c-.12332-.01-.24735.0068-.36352.0494-.05748.0227-.10623.0632-.13917.1155-.03295.0522-.04837.1137-.04405.1753.0349.1832.29082.2356.4624.1949.17343-.0691.36178-.0922.54674-.0669.31118.1047.36352.5816.67179.695.18184.0278.36758.0149.54383-.0378.18301-.0182.36727.0192.52865.1074s.29236.2231.3758.387c.03219.0564.04254.1226.02908.1861-.02956.0607-.07736.1105-.13669.1426-.30854.2251-.5401.5399-.66306.9015-.0268.0593-.03294.1258-.01745.189.04653.1425.25592.1571.37516.0669.10599-.1044.19003-.229.24719-.3664.11799-.205.28727-.3758.49122-.4956.20394-.1199.43554-.1846.67205-.1878.08838.0105.17796-.0036.25883-.0408.16868-.1047.07562-.3984-.11051-.4711-.19589-.0486-.4028-.0237-.58164.0698-.13678-.3484-.3939-.6361-.72471-.8112-.33082-.175-.71341-.2256-1.07836-.1427 0 0-.6747-.6514-.72414-.7212-.18089-.324-.34116-.6591-.47985-1.0033-.18416-.3384-.45077-.6249-.77511-.8328s-.69592-.3306-1.08031-.3567c-.11514-.0153-.23226.0029-.33735.0524-.05097.0269-.09135.0703-.11457.1231-.02323.0528-.02795.1119-.01339.1677.04362.1105.16286.1454.29082.1599"/><path d="m36.7851 33.6507c-.4427-.3081-.9731-.4652-1.5122-.4479-.42.0295-.8339.1166-1.2302.2589-.1489.034-.285.1096-.3926.2181-.0482.0574-.0723.1311-.0675.2059.0049.0748.0385.1448.0937.1954.0611.0239.1269.0337.1923.0287.0655-.005.129-.0248.1858-.0578.5345-.23 1.1211-.3124 1.6983-.2385.2874.0408.5615.1477.8006.3122.2392.1645.437.3821.5779.6359-.2794.1778-.5191.4114-.7038.6863-.0959.1396-.1686.3403-.0552.4624.0486.0411.1094.065.173.0681.0635.0032.1264-.0146.1789-.0506.1026-.081.1902-.1795.2588-.2908.3578-.4624.859-.7928 1.425-.9394.1998-.0599.4106-.0738.6165-.0407.2414.0466.3519.2123.5613.2908.0476.0172.0991.0205.1485.0096.0494-.011.0947-.0357.1306-.0713s.061-.0807.0724-.13c.0113-.0493.0084-.1008-.0083-.1485-.0724-.154-.2017-.2739-.3606-.3345-.2371-.1057-.4937-.1603-.7532-.1603-.2596 0-.5162.0546-.7533.1603l-.2123.0844c-.0456.0228-.0948.0376-.1454.0436-.3839.0378-.6485-.5816-.919-.7678"/><path clip-rule="evenodd" d="m5.25172 43.6635 7.40428-9.7918c.5583-.7154.3373-.634 1.2185-.3955l3.3502.9015c.7736.2094.5817.2268 1.1342-.3606l6.6888-6.9302c.6224-.6456.4188-.6398 1.0557 0l2.9082 2.9082c.5322.5351.3548.5525.9451.1192.8521-.6252.7126-.8463 1.3436-.1309l4.9934 5.6565c.4333.4914.2908.4682.8317.1279l6.2497-3.8359c.5816-.3606.4013-.3431.9335.1018l4.3129 3.6091c.5816.4885.3955.4885.9858 0l.9801-.794c.8725-.7241.6136-.6572 1.5094.1338l5.5255 4.8945c2.4109 2.1259 2.8587 2.3469-.1832.4653l-5.4267-3.3619c-.8521-.5234-.8579-.7008-.5176.2676l.8928 2.5563c.4391 1.2563.2675 1.2621-.9859.1425l-7.0582-6.398c-.6049-.5468-.4478-.6573-1.0731-.2414l-4.3623 2.9082c-.3809.253-.3053.1657-.1541.6223l1.4745 4.4496c.4769 1.4366.791 1.7885-.3839.4565l-8.5908-9.7249c-.5816-.6427-.3693-.5642-1.14-.1193-.9161.5322-.6485.4944-1.4541-.2646l-2.7482-2.6174c-.5642-.538-.4217-.5816-.7649.0844l-7.5816 14.9422c-1.0295 2.0357-.7649 1.5472-.634-.4217l.4798-7.1599c.032-.4653.1164-.3897-.3111-.5293l-2.9315-.9655c-.8317-.2734-.6223-.3577-1.204.2908l-7.6514 8.4715c-.90736.9975-.87246.9655-.06108-.0669z" fill-rule="evenodd"/><path d="m4.40568 28.9975c.22371-.0496.44266-.1187.65434-.2065 1.16783-.3881 2.41647-.4663 3.6236-.2268.91586.214 1.76058.6619 2.45158 1.2999.2181.1978.7009.4915.7387.8143.0291.2676-.2908.3636-.4711.4479-.2909.1367-1.0179.4101-1.0615.8027-.0204.1745.1861.2908.3606.2908.3228-.0436.6282-.3984.9044-.5584.7138-.4114 1.5231-.6279 2.3469-.6279.8239 0 1.6332.2165 2.3469.6279.7271.413 1.2709 1.0702 2.1666.666.3572-.1602.7429-.2472 1.1342-.2559.3636 0 .7387.1686 1.0819.1396.0482.0004.0958-.0112.1385-.0337s.079-.0553.1059-.0954c.0268-.0401.0432-.0863.0478-.1343.0045-.048-.0029-.0965-.0218-.1409-.0785-.1803-.3169-.2268-.4914-.253-.5186-.0815-1.0482-.0607-1.5588.0611-.6951.1657-1.3785.1919-1.9747-.2501-.6776-.4944-1.4686-.8104-2.3004-.919-.3191-.0412-.6411-.0548-.9626-.0407-.2959.0519-.5953.0811-.8957.0872-.3315-.0349-.4857-.2908-.6863-.5118-.2539-.3188-.5394-.6111-.8521-.8725-.9756-.7194-2.1331-1.1516-3.34152-1.2476-1.21166-.1035-2.43059.0819-3.55671.5409-.21811.0902-.56419.2908-.29082.5119.05034.0373.10774.0641.16874.0786.06099.0145.12429.0164.18606.0057"/><path d="m47.0451 34.3661c-.0356.0059-.072.0059-.1076 0-.3577-.0989.064-.3839.1978-.4304.5948-.1918 1.2263-.2418 1.8439-.1458.6176.0959 1.2042.3351 1.7128.6983.0521.0462.1152.0783.1832.0931.0895-.0029.1755-.0356.2443-.0931.7906-.5161 1.6969-.8279 2.6377-.9073.0445-.0038.0863-.0231.1181-.0544.0319-.0313.0518-.0728.0564-.1172.0422-.5469.2211-1.0744.5201-1.5342s.7086-.8373 1.1913-1.0977c.4827-.2605 1.0231-.3956 1.5716-.3931.5485.0026 1.0876.1427 1.5678.4076.0786.0437.1658.1047.1629.2007-.0043.0389-.0215.0753-.0489.1033-.0274.0279-.0635.0459-.1023.0508-.1172.009-.234-.0217-.3316-.0872-.4232-.2085-.8912-.3099-1.3628-.295-.4716.0148-.9323.1452-1.3417.3799-.4093.2347-.7547.5664-1.0057.9659s-.4001.8546-.4339 1.3252c-.0042.0514.0116.1025.0441.1425.0325.0401.0792.0661.1304.0727l.3984.0523c.0328-.0011.0654.0064.0944.0217.0291.0153.0537.0379.0714.0656.0151.034.0182.0721.0087.1081s-.0311.0676-.0611.0896c-.0533.0319-.1124.0526-.1738.0611-.0615.0085-.124.0046-.1839-.0116-.8799-.0974-1.7702.03-2.5875.3703-.8174.3402-1.535.8822-2.086 1.5753-.0639.0843-.1454.1774-.253.1541-.0361-.0114-.0679-.0338-.0908-.064s-.0359-.0668-.0371-.1047c.01-.1099.0584-.2129.1367-.2908.2207-.2721.4649-.5241.7299-.7532.009-.0065.0164-.015.0214-.0249.0051-.0098.0077-.0207.0077-.0318s-.0026-.022-.0077-.0319c-.005-.0099-.0124-.0184-.0214-.0248-.4587-.337-.9921-.5579-1.5548-.644-.5626-.0861-1.1377-.0348-1.6762.1496-.0594.0228-.1207.0403-.1832.0523"/><path d="m43.7733 24.7516c-.0553-.1891-.2908-.2036-.4537-.1891h-.0291c-.2447.0104-.4841.075-.7009.1891-.1337.0814-.2006-.0233-.3228-.0669-.0938-.0353-.1914-.0597-.2908-.0727-.1993-.0222-.4008.012-.5816.0989-.0844.0407-.1309.1192-.032.1715.0721.028.1505.0361.2268.0233.1307-.0294.267-.0203.3926.0262.1221.0724.2313.1648.3228.2733.0312.0321.0685.0577.1097.0751s.0855.0264.1303.0264c.0447 0 .089-.009.1302-.0264s.0785-.043.1097-.0751c.1294-.1473.3027-.2493.4944-.2908.0698-.0203.5176-.0727.4944-.1657"/><path d="m12.6092 21.1832c-.0523-.189-.2908-.2065-.4507-.1919h-.0291c-.2458.0117-.4861.0773-.7038.1919-.1309.0785-.1978-.0262-.3199-.0698-.0939-.0344-.1915-.0578-.2908-.0698-.1994-.0257-.402.0087-.5817.0989-.0843.0407-.1308.1163-.0319.1716.0723.0273.1507.0343.2268.0203.1301-.0269.2651-.0169.3897.0291.1231.0722.2332.1647.3257.2734.0314.0317.0687.0569.1099.0741s.0854.0261.13.0261c.0447 0 .0888-.0089.13-.0261s.0786-.0424.11-.0741c.1291-.1477.3025-.2497.4943-.2908.0669-.0175.5177-.0727.4915-.1629z"/><path d="m21.1707 26.8251c-.0523-.189-.2908-.2065-.4507-.189h-.0291c-.2456.0108-.4859.0753-.7038.189-.1309.0785-.2007-.0232-.3228-.0698-.0938-.0349-.1914-.0584-.2908-.0698-.1994-.0257-.402.0087-.5817.0989-.0843.0407-.1308.1163-.032.1716.0724.0273.1508.0344.2269.0204.13-.027.2651-.0169.3897.029.1225.0732.2324.1655.3257.2734.0312.0321.0685.0576.1097.075.0412.0175.0855.0265.1302.0265.0448 0 .0891-.009.1303-.0265.0412-.0174.0785-.0429.1096-.075.1292-.1477.3026-.2497.4944-.2908.0669-.0175.5177-.0727.4915-.1629"/><path clip-rule="evenodd" d="m47.0686 34.6307c-.0565-.189-.0888-.3844-.096-.5816-.0232-.5177-.2646-1.236-.2297-1.7216.0374-.4597.1351-.9124.2908-1.3465.1967-.2908.4314-.5539.698-.7823.2073-.2525.3697-.5388.4798-.8463.0582-.0437.1054-.1003.1377-.1655.0323-.0651.0489-.1369.0484-.2097 0-.2123-.0407-.1221-.0581 0-.0233.16-.189.3054-.192.096 0-.1163-.0378-.1221-.0378-.1221-.0254.282-.1501.5458-.3519.7444-.1134.0815-.1395.0844-.2762.3345s-.602.2297-.6166.1163c-.0145-.1134.0815-.1512.1629-.3344.0243-.0451.0384-.095.0414-.1461.003-.0512-.0052-.1023-.0241-.15-.0188-.0476-.0478-.0906-.085-.1258-.0371-.0353-.0815-.062-.1301-.0783-.2297-.0524-.3199.0581-.3751.2297-.0219.1669-.003.3365.0552.4944.0146.0814-.0174.1018-.0901.1512-.0727.0495-.5002-.1076-.5817-.1861-.0814-.0785-.2355-.1832-.3955-.3315-.1068-.1199-.2214-.2326-.3431-.3374-.0144-.1023-.048-.2009-.0989-.2908-.0669-.1134-.0553-.0349-.0378 0 .0523.1222-.1105.16-.1978 0-.0203-.0407-.0756-.1192-.0494 0 .0402.1509.1182.2891.2268.4013.1717.3332.4162.6235.7154.8492.0816.0354.1477.0989.1861.1791.0385.0801.0468.1714.0233.2572-.0564.329-.0933.6611-.1105.9946 0 0-.1454.3984-.1861.5525s-.0873 1.044-.1076 1.236l.442.317c.0409-.3955.1238-.7854.2472-1.1633l.0931.6253c.0479.0829.0777.1751.0872.2704.032.1861.0815.1629.1396.4014l.0786.3286z" fill-rule="evenodd"/><path clip-rule="evenodd" d="m22.2498 63.0901c-4.9643 0-9.0009.0204-9.0649.0582l-2.5417 2.1608c-.2908.2908-.90446.8928-1.13712.7503-.23265-.1425-.16867-.3286.03199-.5177.50313-.4217 2.61733-2.1608 2.77733-2.4429-.8725-.0465-1.9078 0-2.80932 0-1.53843 0-1.33776-.1861-2.20731.6108l-2.24221 1.9746c-.16867.1396-.60199.6107-.80266.3286-.13377-.3286.03199-.3751.20067-.5176.16867-.1425.29082-.2908.46822-.4217.29081-.2356.56709-.4711.87245-.7532.29082-.2327.53511-.4682.87246-.7503.63689-.5642.60199-.4217.66888-.9859l-2.8762-2.4894c-.29081-.2356-.16867-.6107.16577-.5177.40548.3072.79382.6363 1.16327.9859l2.3091 2.0212c.09016.0262 6.47068.0233 14.14828.0145v-.0145h18.499v.0145c7.6776 0 14.0582 0 14.1483-.0145l2.3091-2.0212c.3695-.3496.7578-.6787 1.1633-.9859.3344-.093.4682.2909.1658.5177l-2.8762 2.4894c.0669.5642.032.4217.6688.9859.3345.2908.5817.5176.8725.7503.2908.2908.5816.5176.8725.7532.1686.1396.2908.2908.4682.4217s.3344.189.2006.5176c-.2006.2909-.6339-.189-.8026-.3286l-2.2364-1.995c-.8725-.7968-.6689-.6107-2.2073-.6107-.9016 0-1.9398-.0465-2.8093 0 .1686.2908 2.2742 2.0212 2.7773 2.4429.2006.189.2326.378.032.5176-.2007.1396-.8347-.4682-1.1371-.7503l-2.5418-2.1608c-.064-.0378-4.1005-.0523-9.0648-.0581h-18.4989" fill-rule="evenodd"/></g><path clip-rule="evenodd" d="m53.9468 49.9191h2.2073c-.0749.0736-.1567.1398-.2443.1977-.0611.0305-.1155.0731-.1599.1251-.2268.2123-.2908.1628-.4246.2908-.1338.1279-.032-.0524-.3403.2326-.1396.1251-.4071.2298-.4217.445-.0159.0777-.0047.1585.0319.2289.0365.0704.0961.1262.1688.1579.0901.0193.1833.0193.2734 0 .1076-.0291.0233-.0291.1745-.1163.1512-.0873.1134-.096.1657-.1193.1164-.0523.0989 0 .2094-.0989.0533-.0434.1108-.0814.1716-.1134.0569-.0381.1113-.0799.1629-.125.0581-.0407.1221-.064.1774-.1105.0552-.0466.0232-.0349.0756-.064l.2588-.1571c.0504-.0452.1039-.087.16-.125.0337-.0122.0651-.0299.093-.0524.027-.021.0551-.0404.0844-.0581.0292-.0177.0574-.0372.0843-.0582.032-.0262.0436-.0436.0756-.0698.0785-.0582.1367-.0582.1832-.1018.2472-.221.1396-.0291.3228-.2501.0442-.0523.0962-.0974.1542-.1338.0901-.0639.0843-.0378.1367-.1512.037-.0697.0455-.1511.0238-.227s-.0719-.1405-.1402-.1801c-.0324-.027-.0701-.0472-.1106-.0592s-.083-.0156-.1249-.0106c-.794 0-8.5356-.0175-8.6344 0-.0474.0201-.0908.0487-.128.0843-.0307.0446-.0542.0936-.0698.1454-.0436.0931-.032.1512.0349.2908.0686.0804.1633.134.2676.1513.2704.0203 1.3435 0 1.7012 0h3.3997" fill="#313644" fill-rule="evenodd"/><path clip-rule="evenodd" d="m40.766 49.8231c.1658 0 .0843.0552.2007.0698h4.6531c.2472 0 .8113.0814.7328-.3926-.0174-.0989-.0291-.1309-.093-.1774-.1076-.0815-.0989-.0844-.2094-.0844-.1891 0-.3839 0-.5817 0h-4.0714c-.2094 0-.4741-.032-.6049.064-.0665.0654-.1051.154-.1076.2472 0 .1483.061.1425.0785.2734" fill="#313644" fill-rule="evenodd"/><path d="m50.8723 59.5363c-1.0062-.1541-2.3469-.2501-3.3647-.346 0-.983.0378-2.0852.0378-3.1031.7532 0 2.1288-.1657 2.8849-.2384l-.1192-.5264c-.7067-.0727-2.0619-.1687-2.7803-.2501 0-.9248-.0698-1.5472-.1076-2.4691.8987-.0959 2.8762-.2035 3.7603-.3577l-.1192-.5264c-.9452-.157-3.3997-.0727-4.3623-.1686-.2501 2.3265-.0465 5.8687-.2908 8.5122.3904.07.7872.0983 1.1836.0844 1.0528 0 2.4545-.0844 3.388-.0844zm-9.3265-3.5799c.2137-.0321.4295-.0476.6456-.0466 1.5559 0 2.5272.8725 2.5272 1.9136 0 .9946-.5147 1.5588-1.6402 1.5588-.4726-.0042-.9445-.0363-1.4134-.096-.0494-1.0905-.0785-2.2509-.1192-3.3298zm-.73-4.4815c-.1454 2.6173-.0843 5.8309-.1686 8.4337.1308.2385 1.1254.4071 2.12.4071 1.7827 0 2.9315-.6834 2.9315-2.3701 0-1.4978-1.364-2.9082-3.5073-2.9082-.2365-.002-.4728.0146-.7067.0494-.0465-1.1138-.0727-2.3847-.1425-3.4898zm-1.9514.2646c-.0727 1.0644-.1105 2.5127-.1337 3.5683-.4055.2076-.8508.3256-1.3058.3461-1.1953 0-1.5675-1.2098-1.5675-2.9082 0-.3257 0-.6718.0349-1.0295l-.5264-.1221c-.1351.6468-.2072 1.3052-.2152 1.9659 0 1.8903.7416 3.0042 2.2887 3.0042.4299-.0113.8563-.0797 1.268-.2036-.0233 1.1138-.0349 2.1317-.0727 3.2339.0333.1528.1139.2912.2303.3956s.2627.1695.4182.186c.1658 0 .3228-.093.4072-.3577 0-.8143-.2414-7.125-.2908-7.9626zm-4.5047 7.8056c-1.0034-.1542-2.3469-.2501-3.3648-.3461 0-.983.0378-2.0852.0378-3.103.7532 0 2.1317-.1658 2.8849-.2385l-.1192-.5264c-.7067-.0727-2.059-.1687-2.7773-.2501 0-.9248-.0727-1.5472-.1076-2.469.8957-.096 2.8733-.2036 3.7573-.3578l-.1192-.5263c-.9452-.1571-3.3997-.0727-4.3623-.1687-.253 2.3265-.0494 5.8687-.2908 8.5122.3905.07.7872.0983 1.1836.0844 1.0557 0 2.4546-.0844 3.391-.0844zm-9.7686-6.8081c.4102-.3415.9208-.5396 1.4541-.5642 1.2214 0 2.0357 1.2564 2.0357 2.4662s-.8725 2.0968-1.9281 2.0968c-.516-.0013-1.0243-.1249-1.4832-.3607zm-.6369-1.0673c-.1309 2.7424-.1076 5.4732-.189 8.2156.0323.1528.1122.2913.2282.3958s.2621.1696.4174.1859c.1686 0 .3228-.096.4071-.3577-.0349-.8725-.0727-1.7711-.096-2.6581.4915.0465 1.1022.1425 1.6868.1425 1.8089 0 2.5388-1.4134 2.5388-3.0042 0-1.8816-.7997-3.0885-2.5853-3.0885-.6506-.0209-1.295.1316-1.8671.4421 0-.0495 0-.3606 0-.4188zm-3.8301 1.1022c.2501 1.4018.8986 2.9082 1.4977 4.2023-.4798-.0465-.9829-.0581-1.4861-.0581h-1.3174c.4683-1.2098 1.0906-2.8879 1.3058-4.1442zm-.4071-1.1865c-.7911 2.7918-2.0009 5.3539-2.7308 8.0353-.0164.1773.037.354.1489.4925s.2734.2279.4502.2491c.077-.002.1525-.0214.221-.0566.0685-.0353.1281-.0855.1745-.147.2646-.7881.442-1.902.7299-2.6814 1.2331.1309 1.7449.2036 3.0187.3723.2806.6674.5081 1.3558.6805 2.059.0727.3112.2909.4653.4683.4653s.4071-.189.4071-.6689c-.6951-2.754-2.0357-5.2696-2.6813-8.0586zm-7.4828 1.1632c.5103-.2535 1.0705-.3906 1.6402-.4013.7649 0 1.3989.2908 1.3989 1.1022 0 1.4948-1.1633 1.3523-2.2742 1.4541.0362.2935.0886.5847.157.8725.1774 0 .3344-.0233.4886-.0233 1.3552 0 1.9892.8492 1.9892 1.9892 0 1.2214-.6107 1.6867-1.3901 1.6867-.8791-.0657-1.7083-.4336-2.3469-1.0411-.3229.1803-.1658.1687-.3461.3344.4304.983 1.5791 1.4541 2.6348 1.4541 1.7449 0 2.3265-1.0876 2.3265-2.6464 0-1.0179-.3489-1.9863-1.1632-2.1288.2649-.1806.4782-.4271.619-.7152.1407-.2881.204-.6079.1836-.9279 0-1.2185-.7794-2.2131-1.9892-2.2131-.8271.0452-1.6246.3234-2.3003.8026z" fill="#222b3c"/><path d="m31.4922 65.7599c.7357.0901 1.1225.8724 1.1225 1.6984 0 .5583-.2908 1.7449-1.0004 1.7449-.4682 0-.9044-.6224-.9044-1.2069 0-.5002.157-2.1754.7823-2.2481m-1.364 2.1346c0 .9917.5264 1.8031 1.5443 1.9369 1.1225-.0843 1.4541-1.3727 1.4541-2.2509 0-1.0237-.5991-2.2393-1.6984-2.2393-1.0033.0116-1.3 1.8496-1.3 2.565zm-3.5538-.6834 2.7424.1832c.2211-.0261.3199-.1483.3199-.2908-.0125-.1192-.0677-.2298-.1553-.3116-.0876-.0817-.2018-.1291-.3216-.1333l-2.6668.1803zm-2.2247-1.4541c.7386.0902 1.1254.8725 1.1254 1.6984 0 .5584-.2908 1.7449-1.0004 1.7449-.4682 0-.9044-.6223-.9044-1.2069 0-.5002.157-2.1753.7794-2.248m-1.3611 2.1346c0 .9917.5264 1.8031 1.5443 1.9369 1.1225-.0844 1.4541-1.3727 1.4541-2.251 0-1.0237-.5991-2.2393-1.6984-2.2393-1.0033.0262-1.3 1.8642-1.3 2.5796zm-.3519 1.5093c-.0588.0156-.1194.0235-.1803.0233-.8957 0-.7648-1.7885-1.6576-2.0008.6398-.1396.631-1.8234 1.582-1.8234.0435-.0041.0874-.0041.1309 0l.0349-.2909c-.1455-.054-.2986-.0845-.4537-.0901-1.0149 0-.9015 1.6896-1.7798 1.8467.0065-.5373-.0207-1.0744-.0814-1.6082l-.3606-.1309c-.0588.4599-.0841.9236-.0757 1.3872 0 1.1807 0 1.8612-.0319 2.5359.022.105.0766.2002.1559.2723.0794.0721.1795.1172.2861.1291.1163 0 .2239-.0669.2908-.2472-.0407-.5148-.0814-1.0412-.1134-1.5588.0391-.0147.0804-.0226.1221-.0233.6311 0 .7969 1.9514 1.8875 1.9514.0983-.0003.1961-.014.2908-.0407zm-4.0714-1.4104c.0041.062.0041.1241 0 .1861 0 .6165-.2065 1.1255-.8725 1.1255-.2908 0-.8055-.2036-1.1632-.2036-.1309 0-.1978.096-.2298.4508.4217.1389.8619.2134 1.3058.221 1.2883 0 1.4919-.7154 1.4919-1.8147 0-1.3785-.3286-2.5185-1.7973-2.5185-.3116-.0143-.6218.0508-.9015.189l.0407.3432c.1924-.0304.3868-.0469.5816-.0494.9685 0 1.2825.6572 1.4541 1.4773-.4769 0-.919-.0494-1.3552-.0727l-.0233.3926c.4361.1306.8843.2164 1.3378.2559z" fill="#222b3c"/><path d="m33.1236 65.9228 1.55.0756c-.0959 1.0993-.1628 2.2073-.2297 3.3066.0222.1009.0754.1924.152.2617s.1729.1131.2755.1251c.0689.0012.1359-.0222.1891-.0659.0533-.0436.0893-.1048.1017-.1725-.0582-1.1488 0-2.2888-.0727-3.4317l1.5006.0756c.221-.0262.3199-.1396.3199-.2704-.0136-.1165-.0682-.2242-.154-.3041-.0857-.0799-.1971-.1268-.3142-.1322-1.1226.0582-2.249.1183-3.3793.1803z" fill="#222b3c"/><path d="m44.5559 67.499c.1413-.0239.2842-.0375.4275-.0407.7619 0 1.1167.4362 1.1167.8724-.0043.1256-.034.2491-.0874.3629-.0533.1138-.1291.2156-.2229.2993-.0937.0837-.2035.1476-.3226.1877s-.2451.0557-.3704.0458c-.208-.0016-.4139-.041-.6078-.1163zm-.5817-1.9602c0 .2705-.0232.5584-.0232.8521 0 1.0586.0494 2.0619.0494 3.0536.032.2298 1.0906.2618 1.2069.2618.7794 0 1.4686-.5002 1.4686-1.2622-.0099-.4142-.1828-.8078-.4812-1.0953s-.6981-.4457-1.1124-.4402c-.2065.0022-.4114.0356-.6079.0989-.0465-.4595-.0959-.919-.1395-1.3872zm-4.2663 4.784c2.0358-.3606 1.5908-3.0361 1.7449-4.4408.3868-.0494.5352 0 1.1342-.0901v.8724 1.8467.9277c.0215.1013.0744.1932.1511.2627.0768.0694.1735.1129.2764.1241.0689.0011.1359-.0222.1892-.0659.0532-.0437.0893-.1048.1017-.1726-.0902-1.3872-.0727-2.8151-.0815-4.2255-.1221 0-.2908 0-1.0091 0-.5816 0-1.14-.0001-1.2389.1221-.0806.1826-.1117.3832-.0901.5816 0 1.1168 0 3.391-1.2971 3.9057zm-2.2654-3.2164c.0508-.3218.2139-.6151.4604-.828.2464-.213.5604-.3317.8861-.3353.2704 0 .3606.1803.4333.5002-.5784.2575-1.1729.4771-1.7798.6572m2.7162 1.7159c-.5908.1119-1.1882.1857-1.7885.221-.8376 0-.9365-.7736-.9597-1.4366.7532-.1571 2.4196-.2123 2.4196-1.2069-.006-.1369-.039-.2713-.0971-.3954-.0582-.1241-.1403-.2354-.2417-.3276s-.22-.1634-.349-.2095c-.1291-.0462-.2659-.0663-.4028-.0592-1.3378 0-1.8147.8346-1.8147 2.0008 0 .7881.2559 2.2073 1.2331 2.2073.7073-.0642 1.4043-.2126 2.0764-.442z" fill="#222b3c"/><path clip-rule="evenodd" d="m9.25962 49.9191h-2.20731c.07488.0736.15669.1398.24428.1977.06118.0305.11558.0731.15995.1251.22684.2123.29082.1628.4246.2908.13377.1279.03199-.0524.34026.2326.13959.1251.40714.2298.42168.445.0154.0777.00392.1583-.03255.2285-.03646.0703-.09575.1261-.16811.1583-.0901.0193-.18327.0193-.27337 0-.11051-.0291-.02327-.0291-.17449-.1163-.15123-.0873-.11342-.096-.16577-.1193-.11633-.0523-.09888 0-.20939-.0989-.05326-.0434-.11074-.0814-.17158-.1134-.05693-.0381-.11133-.0799-.16286-.125-.05816-.0407-.12214-.064-.1774-.1105-.05525-.0466-.02326-.0349-.07561-.064l-.25883-.1571c-.05043-.0452-.10387-.087-.15995-.125-.03371-.0122-.06516-.0299-.09306-.0524-.02695-.021-.05511-.0404-.08434-.0581s-.05739-.0372-.08434-.0582c-.03199-.0262-.04362-.0436-.07561-.0698-.07852-.0582-.13668-.0582-.18322-.1018-.24719-.221-.13959-.0291-.3228-.2501-.04417-.0523-.09616-.0974-.15414-.1338-.09015-.0639-.08433-.0378-.13668-.1512-.03701-.0697-.04556-.1511-.02387-.227s.07193-.1405.1402-.1801c.03247-.027.0701-.0472.1106-.0592s.08301-.0156.12496-.0106c.79393 0 8.53553-.0175 8.63443 0 .0474.0201.0907.0487.1279.0843.0307.0446.0543.0936.0698.1454.0436.0931.032.1512-.0349.2908-.0685.0804-.1633.134-.2675.1513-.2705.0203-1.3436 0-1.7013 0h-3.39968" fill="#313644" fill-rule="evenodd"/><path clip-rule="evenodd" d="m22.4388 49.8231c-.1658 0-.0844.0552-.2007.0698h-4.6531c-.2472 0-.8114.0814-.7328-.3926.0174-.0989.029-.1309.093-.1774.064-.0466.0989-.0844.2094-.0844h.5816 4.0744c.2094 0 .474-.032.6049.064.0665.0654.1051.154.1076.2472 0 .1483-.0611.1425-.0785.2734" fill="#313644" fill-rule="evenodd"/><path clip-rule="evenodd" d="m14.1649 10.3765c.0818 0 .1618.0243.2298.0698.0679.0455.1209.1101.152.1858.0312.0756.0392.1588.023.239-.0161.0802-.0558.1537-.1138.2114-.0581.0576-.1319.0967-.2122.1123s-.1634.007-.2388-.0247-.1397-.0851-.1848-.1534c-.045-.0683-.0687-.1484-.0681-.2302.0007-.109.0446-.2133.1219-.2901.0774-.0768.182-.1199.291-.1199z" fill="#222b3c" fill-rule="evenodd"/><path clip-rule="evenodd" d="m48.8339 12.5634c.0816 0 .1615.0242.2294.0696.0679.0453.1208.1098.1521.1853.0312.0754.0394.1585.0235.2386s-.0553.1537-.113.2114c-.0578.0578-.1314.0971-.2115.113-.0801.016-.1631.0078-.2386-.0235-.0754-.0312-.1399-.0841-.1853-.1521-.0454-.0679-.0696-.1477-.0696-.2294 0-.1095.0435-.2145.121-.292.0774-.0774.1824-.1209.292-.1209z" fill="#222b3c" fill-rule="evenodd"/></g></svg>