<svg fill="none" height="20" viewBox="0 0 21 20" width="21" xmlns="http://www.w3.org/2000/svg"><g clip-rule="evenodd" fill="#130f26" fill-rule="evenodd"><path d="m11.709.889624c.0609-.54891.5553-.9444748 1.1042-.88351772 3.9706.44093872 7.1076 3.57358372 7.5529 7.54435372.0615.54884-.3335 1.04366-.8823 1.1052-.5489.06155-1.0437-.33349-1.1053-.88234-.341-3.04165-2.7442-5.44163-5.786-5.77943-.5489-.06096-.9445-.55536-.8835-1.104266z"/><path d="m11.7212 4.16585c.1053-.54215.6302-.89629 1.1723-.79098 2.0785.40372 3.702 2.02901 4.1067 4.10623.1056.5421-.2483 1.06716-.7903 1.17276-.5421.10561-1.0672-.24824-1.1728-.79033-.249-1.27836-1.2478-2.27728-2.5249-2.52535-.5422-.10531-.8963-.63018-.791-1.17233z"/><path d="m2.74764 3.37409c-.04702.05218-.0937.09745-.1148.1179-.00263.00256-.00486.00472-.00665.00647l-.00209.00204c-.04097.04002-.07682.07505-.11616.11645-.0773.08138-.16095.18051-.23799.30533-.1457.2361-.30161.61704-.26436 1.22697.07819 1.28003 1.02016 3.69666 5.08672 7.76215 4.06609 4.0651 6.48219 5.0057 7.76159 5.0831.6095.0369.9902-.1192 1.2262-.265.1248-.0771.2239-.1609.3053-.2383.0413-.0393.0762-.0751.1162-.116l.0024-.0024c.0017-.0018.0039-.004.0064-.0067.0205-.0211.0659-.068.1183-.1152.7-.7019 1.0713-1.1859 1.2485-1.5324.1574-.3077.1284-.4349.1015-.5161-.0512-.1546-.1999-.3833-.5923-.7856-.1871-.1919-.4038-.3984-.6596-.6417l-.0147-.014c-.248-.2358-.5261-.5003-.8203-.7945-.4562-.4559-.7091-.4776-.8508-.4739-.1084.0029-.2415.0281-.4366.0883-.0973.0301-.1989.0652-.3184.107-.0118.0041-.0239.0083-.036.0126-.1062.0372-.2265.0794-.3496.1192-.5683.1841-1.3145.3611-2.2259.1378-.8898-.218-1.80643-.7842-2.82533-1.8029-1.01893-1.0186-1.58544-1.93514-1.80386-2.82499-.22368-.91129-.04725-1.65764.13645-2.2262.03978-.12314.08185-.24351.11898-.34972.00426-.01219.00845-.0242.01257-.03599.04176-.1196.07677-.2213.10674-.31863.06009-.1952.08526-.32848.08806-.43702.00366-.1421-.01837-.39519-.47422-.85117-.00005-.00005-.0001-.0001-.00015-.00015m0 0c-.29772-.29764-.56491-.57884-.80276-.82916l-.0061-.00641c-.24345-.25621-.44978-.47309-.64161-.66061-.40235-.3933-.63047-.54211-.78464-.59336-.08022-.02667-.20679-.05611-.51485.10145-.34711.17753-.83211.54967-1.53614 1.25135m4.92717-1.4764c.24109.25372.49354.5194.77311.79889l.00015.00015c.74656.74669 1.08034 1.50316 1.05937 2.31693-.00952.3694-.09178.70065-.17593.97399-.04216.13693-.08847.2705-.12996.38936-.00415.01189-.00826.02364-.01231.03525-.0382.10931-.0723.20693-.10435.30612-.1355.41942-.1924.74684-.09723 1.13458.10043.40919.40495 1.01699 1.27554 1.88736.8706.87038 1.4783 1.17458 1.8872 1.27478.3875.0949.7145.0378 1.1337-.0979.0991-.0321.1967-.0663.3059-.1046.0116-.0041.0234-.0082.0353-.0123.1188-.0416.2523-.088.3891-.1303.2733-.0843.6045-.1668.9739-.1766.8138-.0214 1.5704.3122 2.3172 1.0585l.0002.0002c.2764.2764.5391.5262.7902.765l.0092.0088c.2496.2374.4948.4707.713.6944.4183.4289.8544.9348 1.0592 1.5535.2292.6922.1275 1.377-.2194 2.0553-.3251.6356-.8833 1.3048-1.6384 2.0595-.0167.0167-.0339.0327-.0517.0482-.0053.0053-.0158.0157-.0328.0331l-.0068.007c-.038.039-.0957.0981-.1646.1636-.1491.1418-.3573.3205-.632.4903-.563.3479-1.3499.6235-2.3986.5601-2.0372-.1234-4.90068-1.5121-9.05473-5.6651-4.15459-4.1535-5.544509-7.01714-5.66895667-9.05462-.06406133-1.04883.21103167-1.83596.55864967-2.39924.169627-.27487.348221-.48326.489987-.63249.06566-.06912.12491-.12697.16395-.16509.0023-.00225.00453-.00443.00669-.00653.01758-.01718.02807-.02765.03338-.03298.01549-.01785.0316-.03515.04832-.05187.75655-.75662 1.42675-1.315558 2.06277-1.640857.67884-.34720039 1.36406-.448895 2.05648-.218717.61847.205596 1.12383.642723 1.55177 1.061044.22172.21673.453.46013.68834.7078l.00508.00535z"/></g></svg>