<svg fill="none" height="22" viewBox="0 0 22 22" width="22" xmlns="http://www.w3.org/2000/svg"><g fill="#c49d7f"><path d="m11 0c-6.0654 0-11 4.9346-11 11s4.9346 11 11 11 11-4.9346 11-11-4.9346-11-11-11zm0 19.6594c-4.77474 0-8.65961-3.8844-8.65961-8.6594 0-4.77497 3.88487-8.65939 8.65961-8.65939 4.7747 0 8.6596 3.88442 8.6596 8.65939 0 4.775-3.8849 8.6594-8.6596 8.6594z"/><path d="m16.7324 10.6603h-4.9434v-5.94379c0-.50018-.4056-.90572-.9057-.90572-.5002 0-.90576.40554-.90576.90572v6.84949c0 .5002.40556.9058.90576.9058h5.8491c.5002 0 .9057-.4056.9057-.9058 0-.5001-.4055-.9057-.9057-.9057z"/></g></svg>